999
DXF created from QGIS
  0
SECTION
  2
HEADER
  9
$ACADVER
  1
AC1018
  9
$EXTMIN
 10
273.98870849609397737
 20
-680.15887451171897737
 30
0.0
  9
$EXTMAX
 10
608.013671875
 20
-239.06649780273400552
 30
0.0
  9
$LTSCALE
 40
1.0
  9
$PDMODE
 70
    33
  9
$PDSIZE
 40
     1
  9
$PSLTSCALE
 70
     0
  9
$HANDSEED
  5
9999999
  9
$DWGCODEPAGE
  3

  0
ENDSEC
  0
SECTION
  2
TABLES
  0
TABLE
  2
LTYPE
  5
64
100
AcDbSymbolTable
 70
     5
  0
LTYPE
  5
65
100
AcDbSymbolTableRecord
100
AcDbLinetypeTableRecord
  2
ByLayer
 70
    64
  3
Defaultstyle
 72
    65
 73
     0
 40
0.0
  0
LTYPE
  5
66
100
AcDbSymbolTableRecord
100
AcDbLinetypeTableRecord
  2
ByBlock
 70
    64
  3
Defaultstyle
 72
    65
 73
     0
 40
0.0
  0
LTYPE
  5
67
100
AcDbSymbolTableRecord
100
AcDbLinetypeTableRecord
  2
CONTINUOUS
 70
    64
  3
Defaultstyle
 72
    65
 73
     0
 40
0.0
  0
LTYPE
  5
68
100
AcDbSymbolTableRecord
100
AcDbLinetypeTableRecord
  2
DASH
 70
    64
  3

 72
    65
 73
     2
 40
0.02335619738710756
 49
0.01796630568239043
 74
     0
 49
-0.00538989170471713
 74
     0
  0
LTYPE
  5
69
100
AcDbSymbolTableRecord
100
AcDbLinetypeTableRecord
  2
DOT
 70
    64
  3

 72
    65
 73
     2
 40
0.01077978340943426
 49
0.00538989170471713
 74
     0
 49
-0.00538989170471713
 74
     0
  0
LTYPE
  5
6a
100
AcDbSymbolTableRecord
100
AcDbLinetypeTableRecord
  2
DASHDOT
 70
    64
  3

 72
    65
 73
     4
 40
0.03413598079654181
 49
0.01796630568239043
 74
     0
 49
-0.00538989170471713
 74
     0
 49
0.00538989170471713
 74
     0
 49
-0.00538989170471713
 74
     0
  0
LTYPE
  5
6b
100
AcDbSymbolTableRecord
100
AcDbLinetypeTableRecord
  2
DASHDOTDOT
 70
    64
  3

 72
    65
 73
     6
 40
0.04491576420597607
 49
0.01796630568239043
 74
     0
 49
-0.00538989170471713
 74
     0
 49
0.00538989170471713
 74
     0
 49
-0.00538989170471713
 74
     0
 49
0.00538989170471713
 74
     0
 49
-0.00538989170471713
 74
     0
  0
ENDTAB
  0
TABLE
  2
BLOCK_RECORD
  5
6c
100
AcDbSymbolTable
 70
     0
  0
BLOCK_RECORD
  5
6d
100
AcDbSymbolTableRecord
100
AcDbBlockTableRecord
  2
*Model_Space
  0
BLOCK_RECORD
  5
6e
100
AcDbSymbolTableRecord
100
AcDbBlockTableRecord
  2
*Paper_Space
  0
BLOCK_RECORD
  5
6f
100
AcDbSymbolTableRecord
100
AcDbBlockTableRecord
  2
*Paper_Space0
  0
ENDTAB
  0
TABLE
  2
APPID
  5
70
100
AcDbSymbolTable
 70
     1
  0
APPID
  5
71
100
AcDbSymbolTableRecord
100
AcDbRegAppTableRecord
  2
ACAD
 70
     0
  0
ENDTAB
  0
TABLE
  2
VIEW
  5
72
100
AcDbSymbolTable
 70
     0
  0
ENDTAB
  0
TABLE
  2
UCS
  5
73
100
AcDbSymbolTable
 70
     0
  0
ENDTAB
  0
TABLE
  2
VPORT
  5
74
100
AcDbSymbolTable
  0
VPORT
  5
75
100
AcDbSymbolTableRecord
100
AcDbViewportTableRecord
  2
*ACTIVE
 70
     0
 10
0.0
 20
0.0
 11
1.0
 21
1.0
 12
0.0
 22
0.0
 13
0.0
 23
0.0
 14
1.0
 24
1.0
 15
1.0
 25
1.0
 16
0.0
 26
0.0
 36
1.0
 17
441.00119018554698869
 27
-459.61268615722650566
 40
441.09237670898494343
 41
0.75726759521686837
 42
50.0
 43
0.0
 44
0.0
 50
0.0
 51
0.0
 71
     0
 72
   100
 73
     1
 74
     1
 75
     0
 76
     0
 77
     0
 78
     0
281
     0
 65
     1
110
0.0
120
0.0
130
0.0
111
1.0
121
0.0
131
0.0
112
0.0
122
1.0
132
0.0
 79
     0
146
0.0
 70
     0
  0
ENDTAB
  0
TABLE
  2
DIMSTYLE
  5
76
100
AcDbSymbolTable
100
AcDbDimStyleTable
 70
     0
  0
ENDTAB
  0
TABLE
  2
LAYER
  5
77
100
AcDbSymbolTable
 70
     4
  0
LAYER
  5
78
100
AcDbSymbolTableRecord
100
AcDbLayerTableRecord
  2
0
 70
    64
 62
     1
  6
CONTINUOUS
390
f
  0
LAYER
  5
79
100
AcDbSymbolTableRecord
100
AcDbLayerTableRecord
  2
Monteriggioni_low walls
 70
    64
 62
     1
  6
CONTINUOUS
390
f
  0
LAYER
  5
7a
100
AcDbSymbolTableRecord
100
AcDbLayerTableRecord
  2
Monteriggioni_Gebaeude
 70
    64
 62
     1
  6
CONTINUOUS
390
f
  0
LAYER
  5
7b
100
AcDbSymbolTableRecord
100
AcDbLayerTableRecord
  2
Monteriggioni_Stadtmauer
 70
    64
 62
     1
  6
CONTINUOUS
390
f
  0
ENDTAB
  0
TABLE
  2
STYLE
  5
7c
100
AcDbSymbolTable
 70
     1
  0
STYLE
  5
7d
100
AcDbSymbolTableRecord
100
AcDbTextStyleTableRecord
  2
STANDARD
 70
    64
 40
0.0
 41
1.0
 50
0.0
 71
     0
 42
5.0
  3
romans.shx
  4

  0
ENDTAB
  0
ENDSEC
  0
SECTION
  2
BLOCKS
  0
BLOCK
  5
7e
330
6d
100
AcDbEntity
  8
0
100
AcDbBlockBegin
  2
*Model_Space
 70
     0
 10
0.0
 20
0.0
 30
0.0
  3
*Model_Space
  1

  0
ENDBLK
  5
7f
100
AcDbEntity
  8
0
100
AcDbBlockEnd
  0
BLOCK
  5
80
330
6e
100
AcDbEntity
  8
0
100
AcDbBlockBegin
  2
*Paper_Space
 70
     0
 10
0.0
 20
0.0
 30
0.0
  3
*Paper_Space
  1

  0
ENDBLK
  5
81
100
AcDbEntity
  8
0
100
AcDbBlockEnd
  0
BLOCK
  5
82
330
6f
100
AcDbEntity
  8
0
100
AcDbBlockBegin
  2
*Paper_Space0
 70
     0
 10
0.0
 20
0.0
 30
0.0
  3
*Paper_Space0
  1

  0
ENDBLK
  5
83
100
AcDbEntity
  8
0
100
AcDbBlockEnd
  0
ENDSEC
  0
SECTION
  2
ENTITIES
  0
LWPOLYLINE
  5
84
  8
Monteriggioni_Gebaeude
100
AcDbEntity
100
AcDbPolyline
  6
CONTINUOUS
420
2302755
 90
    13
 70
   129
 43
0.00233561973871076
 10
382.13402943032315306
 20
-310.85706853407970129
 10
381.99661482741964846
 20
-404.16158390555631286
 10
500.44800253023674941
 20
-404.29899850845981746
 10
499.4861003099122172
 20
-310.9944831369832059
 10
460.7351822911251702
 20
-311.1318977398867105
 10
460.46035308531821784
 20
-323.91145580991224051
 10
451.25357469078369377
 20
-323.49921200120172671
 10
451.39098929368719837
 20
-351.39437639061225127
 10
431.3284572697762087
 20
-350.84471797899823287
 10
430.7787988581621903
 20
-324.18628501571919287
 10
422.12167887524162779
 20
-324.18628501571919287
 10
421.98426427233818004
 20
-311.1318977398867105
 10
382.13402943032315306
 20
-310.85706853407970129
  0
HATCH
  5
85
330
6d
100
AcDbEntity
  8
Monteriggioni_Gebaeude
420
12011595
100
AcDbHatch
 10
0.0
 20
0.0
 30
0.0
210
0.0
220
0.0
230
1.0
  2
SOLID
 70
     1
 71
     0
 91
     1
 92
     2
 72
     0
 73
     1
 93
    13
 10
382.13402943032315306
 20
-310.85706853407970129
 10
381.99661482741964846
 20
-404.16158390555631286
 10
500.44800253023674941
 20
-404.29899850845981746
 10
499.4861003099122172
 20
-310.9944831369832059
 10
460.7351822911251702
 20
-311.1318977398867105
 10
460.46035308531821784
 20
-323.91145580991224051
 10
451.25357469078369377
 20
-323.49921200120172671
 10
451.39098929368719837
 20
-351.39437639061225127
 10
431.3284572697762087
 20
-350.84471797899823287
 10
430.7787988581621903
 20
-324.18628501571919287
 10
422.12167887524162779
 20
-324.18628501571919287
 10
421.98426427233818004
 20
-311.1318977398867105
 10
382.13402943032315306
 20
-310.85706853407970129
 97
     0
 75
     0
 76
     1
 98
     0
  0
LWPOLYLINE
  5
86
  8
Monteriggioni_Gebaeude
100
AcDbEntity
100
AcDbPolyline
  6
CONTINUOUS
420
2302755
 90
     9
 70
   129
 43
0.00233561973871076
 10
335.65353999821411435
 20
-451.46656095508620865
 10
355.02899900760769469
 20
-451.60397555798971325
 10
354.99196147791792555
 20
-442.73295042174976288
 10
352.41973187981824367
 20
-442.73295042174981972
 10
352.48682885389291641
 20
-434.49585749650390198
 10
337.98475726544160125
 20
-434.48592714437063478
 10
338.00199115155493246
 20
-442.52121920213721751
 10
335.79095460111761895
 20
-442.53461176635869379
 10
335.65353999821411435
 20
-451.46656095508620865
  0
HATCH
  5
87
330
6d
100
AcDbEntity
  8
Monteriggioni_Gebaeude
420
12011595
100
AcDbHatch
 10
0.0
 20
0.0
 30
0.0
210
0.0
220
0.0
230
1.0
  2
SOLID
 70
     1
 71
     0
 91
     1
 92
     2
 72
     0
 73
     1
 93
     9
 10
335.65353999821411435
 20
-451.46656095508620865
 10
355.02899900760769469
 20
-451.60397555798971325
 10
354.99196147791792555
 20
-442.73295042174976288
 10
352.41973187981824367
 20
-442.73295042174981972
 10
352.48682885389291641
 20
-434.49585749650390198
 10
337.98475726544160125
 20
-434.48592714437063478
 10
338.00199115155493246
 20
-442.52121920213721751
 10
335.79095460111761895
 20
-442.53461176635869379
 10
335.65353999821411435
 20
-451.46656095508620865
 97
     0
 75
     0
 76
     1
 98
     0
  0
LWPOLYLINE
  5
88
  8
Monteriggioni_Gebaeude
100
AcDbEntity
100
AcDbPolyline
  6
CONTINUOUS
420
2302755
 90
    23
 70
   129
 43
0.00233561973871076
 10
335.82262437288216006
 20
-458.98866852459781285
 10
350.99620247786498339
 20
-459.00799245313106667
 10
351.00264378737608695
 20
-462.99945724684317838
 10
359.28885169761622365
 20
-463.00589855635416825
 10
359.28885169761622365
 20
-459.98492439564819279
 10
378.73033412949433796
 20
-460.00210122101123034
 10
378.87043261136500405
 20
-482.8657977185360437
 10
381.06906625782102083
 20
-482.934505019987796
 10
381.18930403536171525
 20
-487.03117786904846298
 10
371.03511636689938769
 20
-486.99548227886384666
 10
370.36040228770411886
 20
-485.99021904817209361
 10
364.06400914851286643
 20
-485.99197993459068812
 10
364.0296554977870187
 20
-477.19744534876667785
 10
350.97526822195447949
 20
-477.12873804731492555
 10
351.00962187268032721
 20
-482.04131010111507294
 10
344.24195267968292455
 20
-482.07566375184092067
 10
344.24195267968292455
 20
-484.20559009684518514
 10
335.34435714168131426
 20
-484.23994374757108972
 10
335.41306444313306656
 20
-476.92261614295966865
 10
337.02504507466983341
 20
-476.90083262091189908
 10
336.99064849756189233
 20
-467.00809886591798659
 10
335.82530825184352352
 20
-467.02876473390762158
 10
335.82262437288216006
 20
-458.98866852459781285
  0
HATCH
  5
89
330
6d
100
AcDbEntity
  8
Monteriggioni_Gebaeude
420
12011595
100
AcDbHatch
 10
0.0
 20
0.0
 30
0.0
210
0.0
220
0.0
230
1.0
  2
SOLID
 70
     1
 71
     0
 91
     1
 92
     2
 72
     0
 73
     1
 93
    23
 10
335.82262437288216006
 20
-458.98866852459781285
 10
350.99620247786498339
 20
-459.00799245313106667
 10
351.00264378737608695
 20
-462.99945724684317838
 10
359.28885169761622365
 20
-463.00589855635416825
 10
359.28885169761622365
 20
-459.98492439564819279
 10
378.73033412949433796
 20
-460.00210122101123034
 10
378.87043261136500405
 20
-482.8657977185360437
 10
381.06906625782102083
 20
-482.934505019987796
 10
381.18930403536171525
 20
-487.03117786904846298
 10
371.03511636689938769
 20
-486.99548227886384666
 10
370.36040228770411886
 20
-485.99021904817209361
 10
364.06400914851286643
 20
-485.99197993459068812
 10
364.0296554977870187
 20
-477.19744534876667785
 10
350.97526822195447949
 20
-477.12873804731492555
 10
351.00962187268032721
 20
-482.04131010111507294
 10
344.24195267968292455
 20
-482.07566375184092067
 10
344.24195267968292455
 20
-484.20559009684518514
 10
335.34435714168131426
 20
-484.23994374757108972
 10
335.41306444313306656
 20
-476.92261614295966865
 10
337.02504507466983341
 20
-476.90083262091189908
 10
336.99064849756189233
 20
-467.00809886591798659
 10
335.82530825184352352
 20
-467.02876473390762158
 10
335.82262437288216006
 20
-458.98866852459781285
 97
     0
 75
     0
 76
     1
 98
     0
  0
LWPOLYLINE
  5
8a
  8
Monteriggioni_Gebaeude
100
AcDbEntity
100
AcDbPolyline
  6
CONTINUOUS
420
2302755
 90
    11
 70
   129
 43
0.00233561973871076
 10
381.17659894511450602
 20
-486.99391672644230766
 10
390.99458743863010568
 20
-486.97401124716020604
 10
391.09764839080770571
 20
-499.014965826577793
 10
378.99872202579030045
 20
-499.00637741389630264
 10
378.9793980972568761
 20
-530.99606754919261675
 10
366.00230653555934168
 20
-531.02183278723703097
 10
366.13972113846290313
 20
-490.48452493071005165
 10
373.01129358044653372
 20
-490.54122573415406805
 10
373.01035139588032052
 20
-487.00242593427134352
 10
381.18930403536171525
 20
-487.03117786904846298
 10
381.17659894511450602
 20
-486.99391672644230766
  0
HATCH
  5
8b
330
6d
100
AcDbEntity
  8
Monteriggioni_Gebaeude
420
12011595
100
AcDbHatch
 10
0.0
 20
0.0
 30
0.0
210
0.0
220
0.0
230
1.0
  2
SOLID
 70
     1
 71
     0
 91
     1
 92
     2
 72
     0
 73
     1
 93
    11
 10
381.17659894511450602
 20
-486.99391672644230766
 10
390.99458743863010568
 20
-486.97401124716020604
 10
391.09764839080770571
 20
-499.014965826577793
 10
378.99872202579030045
 20
-499.00637741389630264
 10
378.9793980972568761
 20
-530.99606754919261675
 10
366.00230653555934168
 20
-531.02183278723703097
 10
366.13972113846290313
 20
-490.48452493071005165
 10
373.01129358044653372
 20
-490.54122573415406805
 10
373.01035139588032052
 20
-487.00242593427134352
 10
381.18930403536171525
 20
-487.03117786904846298
 10
381.17659894511450602
 20
-486.99391672644230766
 97
     0
 75
     0
 76
     1
 98
     0
  0
LWPOLYLINE
  5
8c
  8
Monteriggioni_Gebaeude
100
AcDbEntity
100
AcDbPolyline
  6
CONTINUOUS
420
2302755
 90
    17
 70
   129
 43
0.00233561973871076
 10
333.83279650974276365
 20
-487.95013802596560026
 10
356.50620598882034074
 20
-487.95013802596560026
 10
356.4605695305780273
 20
-493.9983606996522667
 10
351.77973557198737353
 20
-494.04899539287083599
 10
351.84817617169096593
 20
-523.00669765972122605
 10
354.30488846340057307
 20
-523.00240244591725514
 10
354.31369937616534571
 20
-530.61906231996090355
 10
344.55260797940502471
 20
-530.6588670087120363
 10
344.56562848261643239
 20
-527.98797600750913261
 10
338.41413831493701991
 20
-527.94724582836852278
 10
338.36747840555824496
 20
-530.68607952895422386
 10
325.02698963227749118
 20
-530.92521314457098924
 10
324.76343271811174418
 20
-512.68476654859568953
 10
337.98653019873898984
 20
-512.81568830582966712
 10
337.98612419276321361
 20
-501.66916571556299687
 10
333.98470405904834024
 20
-501.64731431344785051
 10
333.83279650974276365
 20
-487.95013802596560026
  0
HATCH
  5
8d
330
6d
100
AcDbEntity
  8
Monteriggioni_Gebaeude
420
12011595
100
AcDbHatch
 10
0.0
 20
0.0
 30
0.0
210
0.0
220
0.0
230
1.0
  2
SOLID
 70
     1
 71
     0
 91
     1
 92
     2
 72
     0
 73
     1
 93
    17
 10
333.83279650974276365
 20
-487.95013802596560026
 10
356.50620598882034074
 20
-487.95013802596560026
 10
356.4605695305780273
 20
-493.9983606996522667
 10
351.77973557198737353
 20
-494.04899539287083599
 10
351.84817617169096593
 20
-523.00669765972122605
 10
354.30488846340057307
 20
-523.00240244591725514
 10
354.31369937616534571
 20
-530.61906231996090355
 10
344.55260797940502471
 20
-530.6588670087120363
 10
344.56562848261643239
 20
-527.98797600750913261
 10
338.41413831493701991
 20
-527.94724582836852278
 10
338.36747840555824496
 20
-530.68607952895422386
 10
325.02698963227749118
 20
-530.92521314457098924
 10
324.76343271811174418
 20
-512.68476654859568953
 10
337.98653019873898984
 20
-512.81568830582966712
 10
337.98612419276321361
 20
-501.66916571556299687
 10
333.98470405904834024
 20
-501.64731431344785051
 10
333.83279650974276365
 20
-487.95013802596560026
 97
     0
 75
     0
 76
     1
 98
     0
  0
LWPOLYLINE
  5
8e
  8
Monteriggioni_Gebaeude
100
AcDbEntity
100
AcDbPolyline
  6
CONTINUOUS
420
2302755
 90
    14
 70
   129
 43
0.00233561973871076
 10
292.8654127817970334
 20
-516.04633368907514068
 10
304.97572990000765003
 20
-516.12013162118319087
 10
310.73993000016156429
 20
-502.04475928359801173
 10
318.44236098455070305
 20
-502.10384212502617629
 10
318.44611841510294425
 20
-502.99140089809679921
 10
327.79215244151390607
 20
-502.99155308580782275
 10
327.8246650632655701
 20
-496.17649543535236489
 10
326.01260850281306602
 20
-496.18985639950369659
 10
325.99962736845373001
 20
-488.99228822730469801
 10
325.06778459251449931
 20
-488.99658243364547161
 10
325.00766570374423736
 20
-488.02179759429890282
 10
305.87052279595786786
 20
-487.78395545953674173
 10
292.87036222547590114
 20
-514.41103749756996422
 10
292.8654127817970334
 20
-516.04633368907514068
  0
HATCH
  5
8f
330
6d
100
AcDbEntity
  8
Monteriggioni_Gebaeude
420
12011595
100
AcDbHatch
 10
0.0
 20
0.0
 30
0.0
210
0.0
220
0.0
230
1.0
  2
SOLID
 70
     1
 71
     0
 91
     1
 92
     2
 72
     0
 73
     1
 93
    14
 10
292.8654127817970334
 20
-516.04633368907514068
 10
304.97572990000765003
 20
-516.12013162118319087
 10
310.73993000016156429
 20
-502.04475928359801173
 10
318.44236098455070305
 20
-502.10384212502617629
 10
318.44611841510294425
 20
-502.99140089809679921
 10
327.79215244151390607
 20
-502.99155308580782275
 10
327.8246650632655701
 20
-496.17649543535236489
 10
326.01260850281306602
 20
-496.18985639950369659
 10
325.99962736845373001
 20
-488.99228822730469801
 10
325.06778459251449931
 20
-488.99658243364547161
 10
325.00766570374423736
 20
-488.02179759429890282
 10
305.87052279595786786
 20
-487.78395545953674173
 10
292.87036222547590114
 20
-514.41103749756996422
 10
292.8654127817970334
 20
-516.04633368907514068
 97
     0
 75
     0
 76
     1
 98
     0
  0
LWPOLYLINE
  5
90
  8
Monteriggioni_Gebaeude
100
AcDbEntity
100
AcDbPolyline
  6
CONTINUOUS
420
2302755
 90
    10
 70
   129
 43
0.00233561973871076
 10
292.74583024159608158
 20
-561.60436518224196334
 10
304.42607148839363163
 20
-561.6730724836936588
 10
304.49477878984538393
 20
-564.21524263740843708
 10
314.52604480180087876
 20
-564.49007184321544628
 10
314.59475210325263106
 20
-555.90165916174669292
 10
312.94577686841063269
 20
-555.76424455884318832
 10
312.80836226550712809
 20
-528.28132397814306387
 10
299.06690197515706586
 20
-521.06705732570924283
 10
292.88324484449958618
 20
-520.31127700974002437
 10
292.74583024159608158
 20
-561.60436518224196334
  0
HATCH
  5
91
330
6d
100
AcDbEntity
  8
Monteriggioni_Gebaeude
420
12011595
100
AcDbHatch
 10
0.0
 20
0.0
 30
0.0
210
0.0
220
0.0
230
1.0
  2
SOLID
 70
     1
 71
     0
 91
     1
 92
     2
 72
     0
 73
     1
 93
    10
 10
292.74583024159608158
 20
-561.60436518224196334
 10
304.42607148839363163
 20
-561.6730724836936588
 10
304.49477878984538393
 20
-564.21524263740843708
 10
314.52604480180087876
 20
-564.49007184321544628
 10
314.59475210325263106
 20
-555.90165916174669292
 10
312.94577686841063269
 20
-555.76424455884318832
 10
312.80836226550712809
 20
-528.28132397814306387
 10
299.06690197515706586
 20
-521.06705732570924283
 10
292.88324484449958618
 20
-520.31127700974002437
 10
292.74583024159608158
 20
-561.60436518224196334
 97
     0
 75
     0
 76
     1
 98
     0
  0
LWPOLYLINE
  5
92
  8
Monteriggioni_Gebaeude
100
AcDbEntity
100
AcDbPolyline
  6
CONTINUOUS
420
2302755
 90
    19
 70
   129
 43
0.00233561973871076
 10
324.97814303515178835
 20
-541.99138288464166635
 10
363.99100764071823733
 20
-541.99567709098221258
 10
363.99959605339972768
 20
-540.99512701359117273
 10
366.9282447777801508
 20
-540.99942121993206001
 10
379.72927387951199307
 20
-547.65678298753641684
 10
379.72927387951199307
 20
-554.25268392690441033
 10
377.99870872419194257
 20
-554.98994547804295507
 10
377.9807007858599377
 20
-562.99937223425411048
 10
379.59615348294488513
 20
-563.01367002570407294
 10
379.6906260224409948
 20
-570.47700064589935209
 10
365.05597081322019903
 20
-578.0176269802278739
 10
351.98440671202655494
 20
-578.06056904363515514
 10
351.98440671202655494
 20
-574.98591730366979391
 10
339.04166880105486825
 20
-574.98591730367002128
 10
338.9901383249661535
 20
-562.03459098001690109
 10
353.02360464648421612
 20
-562.01741415465380669
 10
352.98915104286862743
 20
-554.25009923115430865
 10
325.02537930489978635
 20
-554.04736718625190406
 10
324.97814303515178835
 20
-541.99138288464166635
  0
HATCH
  5
93
330
6d
100
AcDbEntity
  8
Monteriggioni_Gebaeude
420
12011595
100
AcDbHatch
 10
0.0
 20
0.0
 30
0.0
210
0.0
220
0.0
230
1.0
  2
SOLID
 70
     1
 71
     0
 91
     1
 92
     2
 72
     0
 73
     1
 93
    19
 10
324.97814303515178835
 20
-541.99138288464166635
 10
363.99100764071823733
 20
-541.99567709098221258
 10
363.99959605339972768
 20
-540.99512701359117273
 10
366.9282447777801508
 20
-540.99942121993206001
 10
379.72927387951199307
 20
-547.65678298753641684
 10
379.72927387951199307
 20
-554.25268392690441033
 10
377.99870872419194257
 20
-554.98994547804295507
 10
377.9807007858599377
 20
-562.99937223425411048
 10
379.59615348294488513
 20
-563.01367002570407294
 10
379.6906260224409948
 20
-570.47700064589935209
 10
365.05597081322019903
 20
-578.0176269802278739
 10
351.98440671202655494
 20
-578.06056904363515514
 10
351.98440671202655494
 20
-574.98591730366979391
 10
339.04166880105486825
 20
-574.98591730367002128
 10
338.9901383249661535
 20
-562.03459098001690109
 10
353.02360464648421612
 20
-562.01741415465380669
 10
352.98915104286862743
 20
-554.25009923115430865
 10
325.02537930489978635
 20
-554.04736718625190406
 10
324.97814303515178835
 20
-541.99138288464166635
 97
     0
 75
     0
 76
     1
 98
     0
  0
LWPOLYLINE
  5
94
  8
Monteriggioni_Gebaeude
100
AcDbEntity
100
AcDbPolyline
  6
CONTINUOUS
420
2302755
 90
    14
 70
   129
 43
0.00233561973871076
 10
389.99403736123906583
 20
-519.99431090423252044
 10
390.01980259928336636
 20
-551.01136330335270941
 10
392.76856671675352572
 20
-550.99375815065741335
 10
392.73803521296810004
 20
-555.95614190470769245
 10
406.18032585189195061
 20
-562.53254402674599532
 10
406.21325471019059705
 20
-565.01047597414492429
 10
418.95845912948851719
 20
-565.00618176780403701
 10
419.01428381191806238
 20
-562.00882574197191843
 10
431.9956695799563704
 20
-562.00023732929048492
 10
432.00640509580819071
 20
-541.64999348055300743
 10
421.00250134767793497
 20
-537.6542344805002358
 10
420.95955928427059689
 20
-534.33051877277227959
 10
406.9990944705448328
 20
-520.00289931691395395
 10
389.99403736123906583
 20
-519.99431090423252044
  0
HATCH
  5
95
330
6d
100
AcDbEntity
  8
Monteriggioni_Gebaeude
420
12011595
100
AcDbHatch
 10
0.0
 20
0.0
 30
0.0
210
0.0
220
0.0
230
1.0
  2
SOLID
 70
     1
 71
     0
 91
     1
 92
     2
 72
     0
 73
     1
 93
    14
 10
389.99403736123906583
 20
-519.99431090423252044
 10
390.01980259928336636
 20
-551.01136330335270941
 10
392.76856671675352572
 20
-550.99375815065741335
 10
392.73803521296810004
 20
-555.95614190470769245
 10
406.18032585189195061
 20
-562.53254402674599532
 10
406.21325471019059705
 20
-565.01047597414492429
 10
418.95845912948851719
 20
-565.00618176780403701
 10
419.01428381191806238
 20
-562.00882574197191843
 10
431.9956695799563704
 20
-562.00023732929048492
 10
432.00640509580819071
 20
-541.64999348055300743
 10
421.00250134767793497
 20
-537.6542344805002358
 10
420.95955928427059689
 20
-534.33051877277227959
 10
406.9990944705448328
 20
-520.00289931691395395
 10
389.99403736123906583
 20
-519.99431090423252044
 97
     0
 75
     0
 76
     1
 98
     0
  0
LWPOLYLINE
  5
96
  8
Monteriggioni_Gebaeude
100
AcDbEntity
100
AcDbPolyline
  6
CONTINUOUS
420
2302755
 90
    19
 70
   129
 43
0.00233561973871076
 10
302.00843331856663099
 20
-572.99555266473976189
 10
331.99917040225119536
 20
-573.0105823869323558
 10
332.02493564029560957
 20
-581.99406205174750539
 10
330.0066586601507197
 20
-582.0112388771104861
 10
330.00665866015077654
 20
-588.9979125934842159
 10
325.00820247953657827
 20
-588.9979125934842159
 10
324.9867314478328808
 20
-596.0017631352210401
 10
337.98958824757477259
 20
-595.99317472253960659
 10
337.99816398505720372
 20
-611.00459930874615111
 10
326.0087525569277318
 20
-610.99713167706363492
 10
326.00231124741662825
 20
-609.00676703813348922
 10
311.01338401508530751
 20
-608.99603152228166891
 10
311.02626663410745778
 20
-601.0410142760722465
 10
309.00798965396262474
 20
-600.98089538730187087
 10
309.00798965396262474
 20
-588.02956906364897804
 10
304.00094506066710665
 20
-588.01668644462677094
 10
304.0052392670078234
 20
-582.0133859802808729
 10
302.00413911222585739
 20
-582.0090917739400993
 10
302.00843331856663099
 20
-572.99555266473976189
  0
HATCH
  5
97
330
6d
100
AcDbEntity
  8
Monteriggioni_Gebaeude
420
12011595
100
AcDbHatch
 10
0.0
 20
0.0
 30
0.0
210
0.0
220
0.0
230
1.0
  2
SOLID
 70
     1
 71
     0
 91
     1
 92
     2
 72
     0
 73
     1
 93
    19
 10
302.00843331856663099
 20
-572.99555266473976189
 10
331.99917040225119536
 20
-573.0105823869323558
 10
332.02493564029560957
 20
-581.99406205174750539
 10
330.0066586601507197
 20
-582.0112388771104861
 10
330.00665866015077654
 20
-588.9979125934842159
 10
325.00820247953657827
 20
-588.9979125934842159
 10
324.9867314478328808
 20
-596.0017631352210401
 10
337.98958824757477259
 20
-595.99317472253960659
 10
337.99816398505720372
 20
-611.00459930874615111
 10
326.0087525569277318
 20
-610.99713167706363492
 10
326.00231124741662825
 20
-609.00676703813348922
 10
311.01338401508530751
 20
-608.99603152228166891
 10
311.02626663410745778
 20
-601.0410142760722465
 10
309.00798965396262474
 20
-600.98089538730187087
 10
309.00798965396262474
 20
-588.02956906364897804
 10
304.00094506066710665
 20
-588.01668644462677094
 10
304.0052392670078234
 20
-582.0133859802808729
 10
302.00413911222585739
 20
-582.0090917739400993
 10
302.00843331856663099
 20
-572.99555266473976189
 97
     0
 75
     0
 76
     1
 98
     0
  0
LWPOLYLINE
  5
98
  8
Monteriggioni_Gebaeude
100
AcDbEntity
100
AcDbPolyline
  6
CONTINUOUS
420
2302755
 90
    43
 70
   129
 43
0.00233561973871076
 10
425.98015746635320511
 20
-572.99528427681241283
 10
412.00036872408418276
 20
-573.00387268949407371
 10
412.00059845247227486
 20
-575.83786488848591034
 10
408.60794571490208682
 20
-577.6201445057863566
 10
406.48101978585606275
 20
-574.28741719076765548
 10
401.38311283404641472
 20
-577.04703312548622307
 10
402.91277522894637286
 20
-580.11135138565975922
 10
399.006100337014459
 20
-581.96588132261183546
 10
398.98892351165153514
 20
-590.07334289392315441
 10
406.97614730542215966
 20
-602.06276699726072366
 10
406.99748414317559764
 20
-615.01570364829569826
 10
398.00125605328207712
 20
-614.98832808287875196
 10
397.99266764060058676
 20
-613.98348379914625639
 10
392.00104204973939659
 20
-613.99985546082098153
 10
392.00023688605040206
 20
-615.00013715031570882
 10
365.02871190467050155
 20
-615.04221728204709052
 10
365.05968447263512644
 20
-609.54144081649167219
 10
378.99926043216095195
 20
-609.62719751016879854
 10
378.99067038890126469
 20
-607.00781398652134158
 10
390.99727131759294707
 20
-607.01640239920277509
 10
391.01444814295592778
 20
-594.01783980580160005
 10
384.99397085324716272
 20
-582.00265046442848416
 10
378.04594499394409013
 20
-582.027610538774411
 10
366.6748866036795107
 20
-588.46892004987591918
 10
351.83410949010146851
 20
-588.60633465277942378
 10
352.0129900229524651
 20
-629.00461757904361093
 10
350.00330145548758765
 20
-629.00461757904361093
 10
358.9867811203091037
 20
-644.00857453357866689
 10
378.96342901741718379
 20
-644.00857453357866689
 10
378.96342901741718379
 20
-646.00108627568067732
 10
383.99623884876092461
 20
-646.06979357713248646
 10
390.97003976595925678
 20
-629.00019490974307246
 10
394.00012929530015526
 20
-628.99978659691043958
 10
394.00556437080666683
 20
-631.06730290947018602
 10
420.83569827015014653
 20
-631.035777178212129
 10
435.10735884962269893
 20
-623.09739998155805552
 10
434.98940236921907854
 20
-615.97170133490726585
 10
432.01781158142915729
 20
-615.95452450954428514
 10
432.05216523215506186
 20
-602.01553072751221407
 10
433.21589515049475949
 20
-602.01123652117155416
 10
433.19048965109089977
 20
-600.53763373623667121
 10
426.01451111707905284
 20
-588.99549710239807609
 10
425.98015746635320511
 20
-572.99528427681241283
  0
HATCH
  5
99
330
6d
100
AcDbEntity
  8
Monteriggioni_Gebaeude
420
12011595
100
AcDbHatch
 10
0.0
 20
0.0
 30
0.0
210
0.0
220
0.0
230
1.0
  2
SOLID
 70
     1
 71
     0
 91
     1
 92
     2
 72
     0
 73
     1
 93
    43
 10
425.98015746635320511
 20
-572.99528427681241283
 10
412.00036872408418276
 20
-573.00387268949407371
 10
412.00059845247227486
 20
-575.83786488848591034
 10
408.60794571490208682
 20
-577.6201445057863566
 10
406.48101978585606275
 20
-574.28741719076765548
 10
401.38311283404641472
 20
-577.04703312548622307
 10
402.91277522894637286
 20
-580.11135138565975922
 10
399.006100337014459
 20
-581.96588132261183546
 10
398.98892351165153514
 20
-590.07334289392315441
 10
406.97614730542215966
 20
-602.06276699726072366
 10
406.99748414317559764
 20
-615.01570364829569826
 10
398.00125605328207712
 20
-614.98832808287875196
 10
397.99266764060058676
 20
-613.98348379914625639
 10
392.00104204973939659
 20
-613.99985546082098153
 10
392.00023688605040206
 20
-615.00013715031570882
 10
365.02871190467050155
 20
-615.04221728204709052
 10
365.05968447263512644
 20
-609.54144081649167219
 10
378.99926043216095195
 20
-609.62719751016879854
 10
378.99067038890126469
 20
-607.00781398652134158
 10
390.99727131759294707
 20
-607.01640239920277509
 10
391.01444814295592778
 20
-594.01783980580160005
 10
384.99397085324716272
 20
-582.00265046442848416
 10
378.04594499394409013
 20
-582.027610538774411
 10
366.6748866036795107
 20
-588.46892004987591918
 10
351.83410949010146851
 20
-588.60633465277942378
 10
352.0129900229524651
 20
-629.00461757904361093
 10
350.00330145548758765
 20
-629.00461757904361093
 10
358.9867811203091037
 20
-644.00857453357866689
 10
378.96342901741718379
 20
-644.00857453357866689
 10
378.96342901741718379
 20
-646.00108627568067732
 10
383.99623884876092461
 20
-646.06979357713248646
 10
390.97003976595925678
 20
-629.00019490974307246
 10
394.00012929530015526
 20
-628.99978659691043958
 10
394.00556437080666683
 20
-631.06730290947018602
 10
420.83569827015014653
 20
-631.035777178212129
 10
435.10735884962269893
 20
-623.09739998155805552
 10
434.98940236921907854
 20
-615.97170133490726585
 10
432.01781158142915729
 20
-615.95452450954428514
 10
432.05216523215506186
 20
-602.01553072751221407
 10
433.21589515049475949
 20
-602.01123652117155416
 10
433.19048965109089977
 20
-600.53763373623667121
 10
426.01451111707905284
 20
-588.99549710239807609
 10
425.98015746635320511
 20
-572.99528427681241283
 97
     0
 75
     0
 76
     1
 98
     0
  0
LWPOLYLINE
  5
9a
  8
Monteriggioni_Gebaeude
100
AcDbEntity
100
AcDbPolyline
  6
CONTINUOUS
420
2302755
 90
    10
 70
   129
 43
0.00233561973871076
 10
292.52682571821708279
 20
-627.9154994958610132
 10
292.54462891932286084
 20
-622.03332185051488068
 10
312.39611845679678481
 20
-622.0332419727492379
 10
312.39611845679678481
 20
-617.87564507122510804
 10
324.99531986051465537
 20
-617.87564507122510804
 10
325.0253793048997295
 20
-622.99514419307365642
 10
331.02009135656408034
 20
-623.00373260575497625
 10
338.03682451732316849
 20
-635.01033353444665863
 10
337.99610905794150995
 20
-650.89394429355013472
 10
292.52682571821708279
 20
-627.9154994958610132
  0
HATCH
  5
9b
330
6d
100
AcDbEntity
  8
Monteriggioni_Gebaeude
420
12011595
100
AcDbHatch
 10
0.0
 20
0.0
 30
0.0
210
0.0
220
0.0
230
1.0
  2
SOLID
 70
     1
 71
     0
 91
     1
 92
     2
 72
     0
 73
     1
 93
    10
 10
292.52682571821708279
 20
-627.9154994958610132
 10
292.54462891932286084
 20
-622.03332185051488068
 10
312.39611845679678481
 20
-622.0332419727492379
 10
312.39611845679678481
 20
-617.87564507122510804
 10
324.99531986051465537
 20
-617.87564507122510804
 10
325.0253793048997295
 20
-622.99514419307365642
 10
331.02009135656408034
 20
-623.00373260575497625
 10
338.03682451732316849
 20
-635.01033353444665863
 10
337.99610905794150995
 20
-650.89394429355013472
 10
292.52682571821708279
 20
-627.9154994958610132
 97
     0
 75
     0
 76
     1
 98
     0
  0
LWPOLYLINE
  5
9c
  8
Monteriggioni_Gebaeude
100
AcDbEntity
100
AcDbPolyline
  6
CONTINUOUS
420
2302755
 90
    11
 70
   129
 43
0.00233561973871076
 10
421.95706112728692005
 20
-653.84577567268536313
 10
422.02906680572181131
 20
-641.69874773933338474
 10
436.6189194815611927
 20
-633.26608059641716864
 10
455.99437849095477304
 20
-643.29734660837266347
 10
455.97572553219265501
 20
-638.00527406922833507
 10
462.00049702824645692
 20
-638.00956827556899498
 10
462.00336602298187927
 20
-640.00638861140316749
 10
476.01249231807105389
 20
-639.98919739864913936
 10
491.0336260979686358
 20
-648.03654008118962793
 10
491.00787225592773666
 20
-653.87017525258943351
 10
421.95706112728692005
 20
-653.84577567268536313
  0
HATCH
  5
9d
330
6d
100
AcDbEntity
  8
Monteriggioni_Gebaeude
420
12011595
100
AcDbHatch
 10
0.0
 20
0.0
 30
0.0
210
0.0
220
0.0
230
1.0
  2
SOLID
 70
     1
 71
     0
 91
     1
 92
     2
 72
     0
 73
     1
 93
    11
 10
421.95706112728692005
 20
-653.84577567268536313
 10
422.02906680572181131
 20
-641.69874773933338474
 10
436.6189194815611927
 20
-633.26608059641716864
 10
455.99437849095477304
 20
-643.29734660837266347
 10
455.97572553219265501
 20
-638.00527406922833507
 10
462.00049702824645692
 20
-638.00956827556899498
 10
462.00336602298187927
 20
-640.00638861140316749
 10
476.01249231807105389
 20
-639.98919739864913936
 10
491.0336260979686358
 20
-648.03654008118962793
 10
491.00787225592773666
 20
-653.87017525258943351
 10
421.95706112728692005
 20
-653.84577567268536313
 97
     0
 75
     0
 76
     1
 98
     0
  0
LWPOLYLINE
  5
9e
  8
Monteriggioni_Gebaeude
100
AcDbEntity
100
AcDbPolyline
  6
CONTINUOUS
420
2302755
 90
    34
 70
   129
 43
0.00233561973871076
 10
448.99173569477687806
 20
-615.02422496400674845
 10
448.99602990111753797
 20
-601.99989713255172319
 10
469.99469890732109434
 20
-601.98701451352974345
 10
470.02046414536545171
 20
-589.00992295182277303
 10
457.00096729604376833
 20
-588.99972421176346415
 10
456.99452598653260793
 20
-575.0016850925462677
 10
454.52965154694965122
 20
-575.0016850925462677
 10
450.00355806381293178
 20
-564.03428209830417472
 10
450.00355806381293178
 20
-561.99023988011344954
 10
451.0084023475453705
 20
-561.99882829279488305
 10
450.99981393486388015
 20
-548.00132594937042541
 10
448.98261050630276259
 20
-548.00239950095556196
 10
449.00408153800651689
 20
-535.00813111388561083
 10
461.98976151239492083
 20
-526.98655366938896805
 10
461.98976151239492083
 20
-530.00108652058634107
 10
475.03556037555375724
 20
-530.00108652058656844
 10
475.01838355019077653
 20
-549.46887096631758141
 10
479.21744638164636854
 20
-549.44317282528186297
 10
479.21744638164636854
 20
-553.70302551529039192
 10
474.95759369163783958
 20
-553.70302551529039192
 10
475.00120672482762529
 20
-563.36706978811230329
 10
484.00239999080480402
 20
-574.00281243950678345
 10
484.00132643921949693
 20
-579.99752449117556807
 10
487.99386478451970106
 20
-579.97712701105706401
 10
487.98527637183821071
 20
-585.38782700038552775
 10
484.00669419714552077
 20
-585.33200231795603941
 10
484.01098840348618069
 20
-603.98603466211693558
 10
487.99601188769008786
 20
-604.02038831284289699
 10
492.0669194987086712
 20
-612.17938036024293069
 10
482.99755570707230845
 20
-625.04482255709069705
 10
483.03190935779821302
 20
-631.00518095803352026
 10
463.99998685565236656
 20
-630.99994739405542532
 10
463.99569264931159296
 20
-615.01563655132531494
 10
448.99173569477687806
 20
-615.02422496400674845
  0
HATCH
  5
9f
330
6d
100
AcDbEntity
  8
Monteriggioni_Gebaeude
420
12011595
100
AcDbHatch
 10
0.0
 20
0.0
 30
0.0
210
0.0
220
0.0
230
1.0
  2
SOLID
 70
     1
 71
     0
 91
     1
 92
     2
 72
     0
 73
     1
 93
    34
 10
448.99173569477687806
 20
-615.02422496400674845
 10
448.99602990111753797
 20
-601.99989713255172319
 10
469.99469890732109434
 20
-601.98701451352974345
 10
470.02046414536545171
 20
-589.00992295182277303
 10
457.00096729604376833
 20
-588.99972421176346415
 10
456.99452598653260793
 20
-575.0016850925462677
 10
454.52965154694965122
 20
-575.0016850925462677
 10
450.00355806381293178
 20
-564.03428209830417472
 10
450.00355806381293178
 20
-561.99023988011344954
 10
451.0084023475453705
 20
-561.99882829279488305
 10
450.99981393486388015
 20
-548.00132594937042541
 10
448.98261050630276259
 20
-548.00239950095556196
 10
449.00408153800651689
 20
-535.00813111388561083
 10
461.98976151239492083
 20
-526.98655366938896805
 10
461.98976151239492083
 20
-530.00108652058634107
 10
475.03556037555375724
 20
-530.00108652058656844
 10
475.01838355019077653
 20
-549.46887096631758141
 10
479.21744638164636854
 20
-549.44317282528186297
 10
479.21744638164636854
 20
-553.70302551529039192
 10
474.95759369163783958
 20
-553.70302551529039192
 10
475.00120672482762529
 20
-563.36706978811230329
 10
484.00239999080480402
 20
-574.00281243950678345
 10
484.00132643921949693
 20
-579.99752449117556807
 10
487.99386478451970106
 20
-579.97712701105706401
 10
487.98527637183821071
 20
-585.38782700038552775
 10
484.00669419714552077
 20
-585.33200231795603941
 10
484.01098840348618069
 20
-603.98603466211693558
 10
487.99601188769008786
 20
-604.02038831284289699
 10
492.0669194987086712
 20
-612.17938036024293069
 10
482.99755570707230845
 20
-625.04482255709069705
 10
483.03190935779821302
 20
-631.00518095803352026
 10
463.99998685565236656
 20
-630.99994739405542532
 10
463.99569264931159296
 20
-615.01563655132531494
 10
448.99173569477687806
 20
-615.02422496400674845
 97
     0
 75
     0
 76
     1
 98
     0
  0
LWPOLYLINE
  5
a0
  8
Monteriggioni_Gebaeude
100
AcDbEntity
100
AcDbPolyline
  6
CONTINUOUS
420
2302755
 90
    20
 70
   129
 43
0.00233561973871076
 10
540.06801087936753447
 20
-652.30905980099123553
 10
539.5827152407007361
 20
-651.02772318538313812
 10
538.00244730731071741
 20
-650.97619270929430968
 10
537.93374000585902195
 20
-644.92995018154113041
 10
550.01508696378277818
 20
-621.98734764248717966
 10
555.2077217872821393
 20
-621.99808315833013239
 10
555.21107663607449467
 20
-619.99913010672594282
 10
571.02663858900848481
 20
-619.97765907502218852
 10
571.0008733509640706
 20
-608.08270751118107
 10
557.40635543373809924
 20
-608.03117703509235525
 10
557.40635543373809924
 20
-568.13155882015792031
 10
559.00071373177456735
 20
-568.13155882015792031
 10
558.99427242226340695
 20
-563.32634192485079438
 10
568.0013702219591778
 20
-563.32204771853537295
 10
567.99707601561851789
 20
-542.9954220046320188
 10
582.96547157378915927
 20
-542.98253938560992538
 10
582.96547157378915927
 20
-555.01785781925707397
 10
588.85577789043611574
 20
-555.06940663434011185
 10
588.72400227671153061
 20
-626.40393886392246259
 10
540.06801087936753447
 20
-652.30905980099123553
  0
HATCH
  5
a1
330
6d
100
AcDbEntity
  8
Monteriggioni_Gebaeude
420
12011595
100
AcDbHatch
 10
0.0
 20
0.0
 30
0.0
210
0.0
220
0.0
230
1.0
  2
SOLID
 70
     1
 71
     0
 91
     1
 92
     2
 72
     0
 73
     1
 93
    20
 10
540.06801087936753447
 20
-652.30905980099123553
 10
539.5827152407007361
 20
-651.02772318538313812
 10
538.00244730731071741
 20
-650.97619270929430968
 10
537.93374000585902195
 20
-644.92995018154113041
 10
550.01508696378277818
 20
-621.98734764248717966
 10
555.2077217872821393
 20
-621.99808315833013239
 10
555.21107663607449467
 20
-619.99913010672594282
 10
571.02663858900848481
 20
-619.97765907502218852
 10
571.0008733509640706
 20
-608.08270751118107
 10
557.40635543373809924
 20
-608.03117703509235525
 10
557.40635543373809924
 20
-568.13155882015792031
 10
559.00071373177456735
 20
-568.13155882015792031
 10
558.99427242226340695
 20
-563.32634192485079438
 10
568.0013702219591778
 20
-563.32204771853537295
 10
567.99707601561851789
 20
-542.9954220046320188
 10
582.96547157378915927
 20
-542.98253938560992538
 10
582.96547157378915927
 20
-555.01785781925707397
 10
588.85577789043611574
 20
-555.06940663434011185
 10
588.72400227671153061
 20
-626.40393886392246259
 10
540.06801087936753447
 20
-652.30905980099123553
 97
     0
 75
     0
 76
     1
 98
     0
  0
LWPOLYLINE
  5
a2
  8
Monteriggioni_Gebaeude
100
AcDbEntity
100
AcDbPolyline
  6
CONTINUOUS
420
2302755
 90
     5
 70
   129
 43
0.00233561973871076
 10
550.12338147985258274
 20
-604.40901398668211186
 10
549.99307915628662613
 20
-582.9793140190261056
 10
521.81597328173143069
 20
-582.9723359337359625
 10
521.95338788463504898
 20
-604.54642858958550278
 10
550.12338147985258274
 20
-604.40901398668211186
  0
HATCH
  5
a3
330
6d
100
AcDbEntity
  8
Monteriggioni_Gebaeude
420
12011595
100
AcDbHatch
 10
0.0
 20
0.0
 30
0.0
210
0.0
220
0.0
230
1.0
  2
SOLID
 70
     1
 71
     0
 91
     1
 92
     2
 72
     0
 73
     1
 93
     5
 10
550.12338147985258274
 20
-604.40901398668211186
 10
549.99307915628662613
 20
-582.9793140190261056
 10
521.81597328173143069
 20
-582.9723359337359625
 10
521.95338788463504898
 20
-604.54642858958550278
 10
550.12338147985258274
 20
-604.40901398668211186
 97
     0
 75
     0
 76
     1
 98
     0
  0
LWPOLYLINE
  5
a4
  8
Monteriggioni_Gebaeude
100
AcDbEntity
100
AcDbPolyline
  6
CONTINUOUS
420
2302755
 90
    20
 70
   129
 43
0.00233561973871076
 10
509.01045537859261003
 20
-613.00194177657465389
 10
537.06899420402010037
 20
-613.06613396960256068
 10
537.02940698939471531
 20
-616.99318566820988963
 10
541.0144304735985088
 20
-616.98459725552845612
 10
541.02854792780647131
 20
-622.00864627173405097
 10
536.99934754500918643
 20
-622.00023026150836358
 10
537.07234905280211024
 20
-629.58379865925053309
 10
528.00298526116569064
 20
-647.00968798996075293
 10
524.00078495159891645
 20
-647.01827640264230013
 10
523.97437511352620731
 20
-644.67834179002659312
 10
511.99418402289848018
 20
-644.64787450255550993
 10
512.00491953875041418
 20
-641.51095677062721734
 10
508.96676855267912742
 20
-641.51095677062721734
 10
507.01719887398456876
 20
-644.01018486095597382
 10
504.68973903730500297
 20
-644.00159644827431293
 10
496.99881548104531248
 20
-640.00798455138874488
 10
497.00096258421552875
 20
-628.0099720353698558
 10
505.00965740968979389
 20
-610.97914968800728275
 10
509.00326930657519142
 20
-611.00062071971080968
 10
509.01045537859261003
 20
-613.00194177657465389
  0
HATCH
  5
a5
330
6d
100
AcDbEntity
  8
Monteriggioni_Gebaeude
420
12011595
100
AcDbHatch
 10
0.0
 20
0.0
 30
0.0
210
0.0
220
0.0
230
1.0
  2
SOLID
 70
     1
 71
     0
 91
     1
 92
     2
 72
     0
 73
     1
 93
    20
 10
509.01045537859261003
 20
-613.00194177657465389
 10
537.06899420402010037
 20
-613.06613396960256068
 10
537.02940698939471531
 20
-616.99318566820988963
 10
541.0144304735985088
 20
-616.98459725552845612
 10
541.02854792780647131
 20
-622.00864627173405097
 10
536.99934754500918643
 20
-622.00023026150836358
 10
537.07234905280211024
 20
-629.58379865925053309
 10
528.00298526116569064
 20
-647.00968798996075293
 10
524.00078495159891645
 20
-647.01827640264230013
 10
523.97437511352620731
 20
-644.67834179002659312
 10
511.99418402289848018
 20
-644.64787450255550993
 10
512.00491953875041418
 20
-641.51095677062721734
 10
508.96676855267912742
 20
-641.51095677062721734
 10
507.01719887398456876
 20
-644.01018486095597382
 10
504.68973903730500297
 20
-644.00159644827431293
 10
496.99881548104531248
 20
-640.00798455138874488
 10
497.00096258421552875
 20
-628.0099720353698558
 10
505.00965740968979389
 20
-610.97914968800728275
 10
509.00326930657519142
 20
-611.00062071971080968
 10
509.01045537859261003
 20
-613.00194177657465389
 97
     0
 75
     0
 76
     1
 98
     0
  0
LWPOLYLINE
  5
a6
  8
Monteriggioni_Gebaeude
100
AcDbEntity
100
AcDbPolyline
  6
CONTINUOUS
420
2302755
 90
    13
 70
   129
 43
0.00233561973871076
 10
530.06084945594159308
 20
-538.99966300461585433
 10
559.00930214445611455
 20
-539.0061043140875654
 10
559.00930214445622823
 20
-556.00257301072417704
 10
546.00644534470484359
 20
-555.99398459804274353
 10
546.00107758677904712
 20
-561.99943216556323478
 10
544.00105098358085343
 20
-561.99889538977072334
 10
544.00802906888463895
 20
-576.99104327686836768
 10
529.99173957271932522
 20
-577.00392589589057479
 10
529.99603377906009882
 20
-575.99908161215819291
 10
524.97610656673862195
 20
-575.99049319947664571
 10
524.99757759844226257
 20
-561.99889538977060965
 10
529.99496022747473489
 20
-562.01070445720768021
 10
530.06084945594159308
 20
-538.99966300461585433
  0
HATCH
  5
a7
330
6d
100
AcDbEntity
  8
Monteriggioni_Gebaeude
420
12011595
100
AcDbHatch
 10
0.0
 20
0.0
 30
0.0
210
0.0
220
0.0
230
1.0
  2
SOLID
 70
     1
 71
     0
 91
     1
 92
     2
 72
     0
 73
     1
 93
    13
 10
530.06084945594159308
 20
-538.99966300461585433
 10
559.00930214445611455
 20
-539.0061043140875654
 10
559.00930214445622823
 20
-556.00257301072417704
 10
546.00644534470484359
 20
-555.99398459804274353
 10
546.00107758677904712
 20
-561.99943216556323478
 10
544.00105098358085343
 20
-561.99889538977072334
 10
544.00802906888463895
 20
-576.99104327686836768
 10
529.99173957271932522
 20
-577.00392589589057479
 10
529.99603377906009882
 20
-575.99908161215819291
 10
524.97610656673862195
 20
-575.99049319947664571
 10
524.99757759844226257
 20
-561.99889538977060965
 10
529.99496022747473489
 20
-562.01070445720768021
 10
530.06084945594159308
 20
-538.99966300461585433
 97
     0
 75
     0
 76
     1
 98
     0
  0
LWPOLYLINE
  5
a8
  8
Monteriggioni_Gebaeude
100
AcDbEntity
100
AcDbPolyline
  6
CONTINUOUS
420
2302755
 90
    43
 70
   129
 43
0.00233561973871076
 10
516.95815235875147664
 20
-548.99469665058563805
 10
501.99284326129446754
 20
-548.99040244424475077
 10
502.01860849933888176
 20
-560.68782051640368991
 10
490.02918439601012324
 20
-555.02805655931661022
 10
490.02196134818871087
 20
-522.21877805695680763
 10
487.59973715875992184
 20
-522.09766684748524312
 10
487.46232255585641724
 20
-509.59293798326677916
 10
489.79837080521593862
 20
-509.59293798326677916
 10
489.67705947607038297
 20
-489.01322248321656616
 10
501.99366321142781544
 20
-488.9663329973897703
 10
501.99713746763563904
 20
-480.00827178669777595
 10
500.00462572553516338
 20
-480.00827178669777595
 10
500.00462572553522023
 20
-475.51223774794954124
 10
503.02774698941180986
 20
-475.51223774794959809
 10
503.00224906529990676
 20
-468.08805543544013972
 10
499.00085499338865702
 20
-468.00167085800609357
 10
499.00461242393674866
 20
-462.00105427262320745
 10
502.98574048645593848
 20
-461.96879595085943038
 10
502.71534347814497323
 20
-445.96997683894608144
 10
546.27577259855456759
 20
-445.96997683894608144
 10
546.41318720145818588
 20
-487.33177231289971587
 10
543.66489514338809386
 20
-487.19435770999621127
 10
543.80039956015264124
 20
-511.9916659779067345
 10
555.99678220236296511
 20
-512.01728585052717335
 10
555.99678220236296511
 20
-515.02323028904083912
 10
563.01351536312199642
 20
-515.02323028904095281
 10
570.32225455505079026
 20
-528.18067851704904569
 10
528.99481273182902896
 20
-528.03467550146433496
 10
528.99481042592549329
 20
-513.02856124620234368
 10
526.97653575168408224
 20
-513.030718546940534
 10
527.00230098972838277
 20
-508.00649712828203519
 10
530.01592639864850298
 20
-508.00220045723318663
 10
530.00099902934675811
 20
-475.00018184466352977
 10
518.19488378488392755
 20
-475.03128663778676355
 10
518.19488378488392755
 20
-481.13764805431020477
 10
519.00219457694174707
 20
-481.14811518224223619
 10
519.01078298962329427
 20
-489.9837131162219066
 10
521.0011476285532126
 20
-490.00303704475516042
 10
520.99899237178397016
 20
-493.99781245125092255
 10
518.00364500423245318
 20
-493.99043530921056799
 10
518.10577900333703383
 20
-500.79840339744276889
 10
516.96674077143381965
 20
-500.79840339744276889
 10
516.95815235875147664
 20
-548.99469665058563805
  0
HATCH
  5
a9
330
6d
100
AcDbEntity
  8
Monteriggioni_Gebaeude
420
12011595
100
AcDbHatch
 10
0.0
 20
0.0
 30
0.0
210
0.0
220
0.0
230
1.0
  2
SOLID
 70
     1
 71
     0
 91
     1
 92
     2
 72
     0
 73
     1
 93
    43
 10
516.95815235875147664
 20
-548.99469665058563805
 10
501.99284326129446754
 20
-548.99040244424475077
 10
502.01860849933888176
 20
-560.68782051640368991
 10
490.02918439601012324
 20
-555.02805655931661022
 10
490.02196134818871087
 20
-522.21877805695680763
 10
487.59973715875992184
 20
-522.09766684748524312
 10
487.46232255585641724
 20
-509.59293798326677916
 10
489.79837080521593862
 20
-509.59293798326677916
 10
489.67705947607038297
 20
-489.01322248321656616
 10
501.99366321142781544
 20
-488.9663329973897703
 10
501.99713746763563904
 20
-480.00827178669777595
 10
500.00462572553516338
 20
-480.00827178669777595
 10
500.00462572553522023
 20
-475.51223774794954124
 10
503.02774698941180986
 20
-475.51223774794959809
 10
503.00224906529990676
 20
-468.08805543544013972
 10
499.00085499338865702
 20
-468.00167085800609357
 10
499.00461242393674866
 20
-462.00105427262320745
 10
502.98574048645593848
 20
-461.96879595085943038
 10
502.71534347814497323
 20
-445.96997683894608144
 10
546.27577259855456759
 20
-445.96997683894608144
 10
546.41318720145818588
 20
-487.33177231289971587
 10
543.66489514338809386
 20
-487.19435770999621127
 10
543.80039956015264124
 20
-511.9916659779067345
 10
555.99678220236296511
 20
-512.01728585052717335
 10
555.99678220236296511
 20
-515.02323028904083912
 10
563.01351536312199642
 20
-515.02323028904095281
 10
570.32225455505079026
 20
-528.18067851704904569
 10
528.99481273182902896
 20
-528.03467550146433496
 10
528.99481042592549329
 20
-513.02856124620234368
 10
526.97653575168408224
 20
-513.030718546940534
 10
527.00230098972838277
 20
-508.00649712828203519
 10
530.01592639864850298
 20
-508.00220045723318663
 10
530.00099902934675811
 20
-475.00018184466352977
 10
518.19488378488392755
 20
-475.03128663778676355
 10
518.19488378488392755
 20
-481.13764805431020477
 10
519.00219457694174707
 20
-481.14811518224223619
 10
519.01078298962329427
 20
-489.9837131162219066
 10
521.0011476285532126
 20
-490.00303704475516042
 10
520.99899237178397016
 20
-493.99781245125092255
 10
518.00364500423245318
 20
-493.99043530921056799
 10
518.10577900333703383
 20
-500.79840339744276889
 10
516.96674077143381965
 20
-500.79840339744276889
 10
516.95815235875147664
 20
-548.99469665058563805
 97
     0
 75
     0
 76
     1
 98
     0
  0
LWPOLYLINE
  5
aa
  8
Monteriggioni_Gebaeude
100
AcDbEntity
100
AcDbPolyline
  6
CONTINUOUS
420
2302755
 90
    10
 70
   129
 43
0.00233561973871076
 10
588.90324692364333714
 20
-529.37283665813481548
 10
583.0341788752410821
 20
-529.44934810282256876
 10
571.834888738605855
 20
-504.98954878599943186
 10
556.92540432357600366
 20
-505.12696338890293646
 10
557.06281892647950826
 20
-488.01884532741712519
 10
569.994284545777532
 20
-488.01884532741712519
 10
569.91685140616277749
 20
-481.7319545096218576
 10
571.76702747076171818
 20
-481.71361022102064453
 10
588.93012418106673067
 20
-514.82328130628059171
 10
588.90324692364333714
 20
-529.37283665813481548
  0
HATCH
  5
ab
330
6d
100
AcDbEntity
  8
Monteriggioni_Gebaeude
420
12011595
100
AcDbHatch
 10
0.0
 20
0.0
 30
0.0
210
0.0
220
0.0
230
1.0
  2
SOLID
 70
     1
 71
     0
 91
     1
 92
     2
 72
     0
 73
     1
 93
    10
 10
588.90324692364333714
 20
-529.37283665813481548
 10
583.0341788752410821
 20
-529.44934810282256876
 10
571.834888738605855
 20
-504.98954878599943186
 10
556.92540432357600366
 20
-505.12696338890293646
 10
557.06281892647950826
 20
-488.01884532741712519
 10
569.994284545777532
 20
-488.01884532741712519
 10
569.91685140616277749
 20
-481.7319545096218576
 10
571.76702747076171818
 20
-481.71361022102064453
 10
588.93012418106673067
 20
-514.82328130628059171
 10
588.90324692364333714
 20
-529.37283665813481548
 97
     0
 75
     0
 76
     1
 98
     0
  0
LWPOLYLINE
  5
ac
  8
Monteriggioni_Stadtmauer
100
AcDbEntity
100
AcDbPolyline
  6
CONTINUOUS
420
2302755
 90
    58
 70
   129
 43
0.00233561973871076
 10
273.988736945268613
 20
-645.3929193026511939
 10
293.34588581298658028
 20
-645.53975459740240694
 10
293.28574921614887216
 20
-644.21674946697385167
 10
341.73413617669427822
 20
-668.20374338463227559
 10
341.73413617669427822
 20
-673.42549829496533675
 10
361.22983296362752981
 20
-673.71750432613441717
 10
361.19547931290168208
 20
-669.73248084193301111
 10
392.02788083937542751
 20
-669.71530401657082621
 10
392.02788083937542751
 20
-680.15881383723683484
 10
419.04702713527512969
 20
-680.07292971042147656
 10
419.06849816696939115
 20
-668.97347987120861035
 10
520.90989574383047511
 20
-668.99065669657159106
 10
521.04301614039820834
 20
-673.03043131161678048
 10
539.89694959269229457
 20
-673.0918036444001018
 10
540.01265640224528397
 20
-668.11641083362394511
 10
587.93300946875024238
 20
-643.69928432186588907
 10
587.92635344891948534
 20
-645.91788602780491146
 10
607.90622200077461912
 20
-645.6677485084582031
 10
607.74733636616474541
 20
-625.3690351358056887
 10
603.50895470786258556
 20
-625.33038727874020424
 10
603.80096073903109755
 20
-564.85078517583633584
 10
607.90258228973800669
 20
-564.88622260148895293
 10
608.01357715929145797
 20
-545.99063092733081248
 10
603.03229780403955829
 20
-545.99063092733092617
 10
603.01512097867657758
 20
-511.94616305798865596
 10
579.59881380265358075
 20
-465.24237489616206176
 10
580.89136991121290521
 20
-465.24237489616206176
 10
580.99872506973144937
 20
-444.99519199959905791
 10
576.05609357154628469
 20
-444.96513255521387009
 10
537.0067897806285373
 20
-367.82241996224445302
 10
537.04752317231452707
 20
-298.94494014488213907
 10
526.84738443562082466
 20
-277.98917279936961222
 10
527.08496446181084139
 20
-256.99913260858875219
 10
506.61018862918933792
 20
-256.93042530713699989
 10
485.00174232261394991
 20
-246.93351294590732437
 10
449.89124539507020017
 20
-246.86382441109935826
 10
450.02972588367327944
 20
-239.10088058040781789
 10
433.02466877436512505
 20
-239.06652692968194174
 10
432.99890353632076767
 20
-247.00222024735904824
 10
397.99253344665407894
 20
-247.00222024735901982
 10
375.9374896806423294
 20
-257.1107819734476152
 10
356.08107956108659664
 20
-257.0420746719958629
 10
356.04672591036074891
 20
-274.97468035090264493
 10
356.01237225963484434
 20
-278.01497844014249949
 10
344.34501363186092249
 20
-300.20743680905820838
 10
343.9971829182599663
 20
-367.9871896912091529
 10
306.92959378504082224
 20
-444.0547608109778821
 10
301.05511951091619949
 20
-444.07193763634080597
 10
301.00358903482668893
 20
-464.04429132709668693
 10
302.65256426966931258
 20
-464.06576235880004333
 10
277.56151662075967579
 20
-513.88714432400138321
 10
277.69893122366318039
 20
-546.04216140342043673
 10
273.988736945268613
 20
-546.04216140342043673
 10
273.99732535794890964
 20
-565.01825922312457351
 10
278.01670249287622028
 20
-565.0010823977615928
 10
276.99897559012225656
 20
-625.02979283488730289
 10
273.99303115160819289
 20
-624.99543918416145516
 10
273.988736945268613
 20
-645.3929193026511939
  0
LWPOLYLINE
  5
ad
  8
Monteriggioni_Stadtmauer
100
AcDbEntity
100
AcDbPolyline
  6
CONTINUOUS
420
2302755
 90
    25
 70
   129
 43
0.00233561973871076
 10
436.69192098934405522
 20
-264.54512670082698378
 10
436.74345146544055751
 20
-268.57631290320836115
 10
444.90244351282871094
 20
-268.61603431184340707
 10
444.91962033819879707
 20
-264.4538748161033368
 10
484.9072697831172718
 20
-265.27836243352436441
 10
507.16843545348433508
 20
-277.16472558467711451
 10
521.59696875835174978
 20
-300.73132998262735782
 10
521.18472494964134967
 20
-368.88897302276336632
 10
562.27169121778774752
 20
-445.42890684001292811
 10
562.92441058157760381
 20
-464.65514217905803207
 10
588.93012418106673067
 20
-514.82328130628059171
 10
588.72400227671153061
 20
-626.40393886392246259
 10
538.91120872419276111
 20
-652.92495722429805483
 10
538.2241357096752381
 20
-653.88685944462258703
 10
343.78247260122259377
 20
-653.81815214317077789
 10
292.52682571821708279
 20
-627.9154994958610132
 10
292.87036222547590114
 20
-514.41103749756996422
 10
317.36451519302460156
 20
-464.24182481877045348
 10
319.32267328439962739
 20
-464.18600013634073775
 10
319.25396598294787509
 20
-445.77244334727174646
 10
361.09671256706366194
 20
-368.33931461114951844
 10
361.78378558158118494
 20
-300.3190861739169577
 10
375.11300206322061968
 20
-275.72187225419048673
 10
397.75205789156302671
 20
-264.63101082764165994
 10
436.69192098934405522
 20
-264.54512670082698378
  0
HATCH
  5
ae
330
6d
100
AcDbEntity
  8
Monteriggioni_Stadtmauer
420
8227727
100
AcDbHatch
 10
0.0
 20
0.0
 30
0.0
210
0.0
220
0.0
230
1.0
  2
SOLID
 70
     1
 71
     0
 91
     2
 92
     2
 72
     0
 73
     1
 93
    58
 10
273.988736945268613
 20
-645.3929193026511939
 10
293.34588581298658028
 20
-645.53975459740240694
 10
293.28574921614887216
 20
-644.21674946697385167
 10
341.73413617669427822
 20
-668.20374338463227559
 10
341.73413617669427822
 20
-673.42549829496533675
 10
361.22983296362752981
 20
-673.71750432613441717
 10
361.19547931290168208
 20
-669.73248084193301111
 10
392.02788083937542751
 20
-669.71530401657082621
 10
392.02788083937542751
 20
-680.15881383723683484
 10
419.04702713527512969
 20
-680.07292971042147656
 10
419.06849816696939115
 20
-668.97347987120861035
 10
520.90989574383047511
 20
-668.99065669657159106
 10
521.04301614039820834
 20
-673.03043131161678048
 10
539.89694959269229457
 20
-673.0918036444001018
 10
540.01265640224528397
 20
-668.11641083362394511
 10
587.93300946875024238
 20
-643.69928432186588907
 10
587.92635344891948534
 20
-645.91788602780491146
 10
607.90622200077461912
 20
-645.6677485084582031
 10
607.74733636616474541
 20
-625.3690351358056887
 10
603.50895470786258556
 20
-625.33038727874020424
 10
603.80096073903109755
 20
-564.85078517583633584
 10
607.90258228973800669
 20
-564.88622260148895293
 10
608.01357715929145797
 20
-545.99063092733081248
 10
603.03229780403955829
 20
-545.99063092733092617
 10
603.01512097867657758
 20
-511.94616305798865596
 10
579.59881380265358075
 20
-465.24237489616206176
 10
580.89136991121290521
 20
-465.24237489616206176
 10
580.99872506973144937
 20
-444.99519199959905791
 10
576.05609357154628469
 20
-444.96513255521387009
 10
537.0067897806285373
 20
-367.82241996224445302
 10
537.04752317231452707
 20
-298.94494014488213907
 10
526.84738443562082466
 20
-277.98917279936961222
 10
527.08496446181084139
 20
-256.99913260858875219
 10
506.61018862918933792
 20
-256.93042530713699989
 10
485.00174232261394991
 20
-246.93351294590732437
 10
449.89124539507020017
 20
-246.86382441109935826
 10
450.02972588367327944
 20
-239.10088058040781789
 10
433.02466877436512505
 20
-239.06652692968194174
 10
432.99890353632076767
 20
-247.00222024735904824
 10
397.99253344665407894
 20
-247.00222024735901982
 10
375.9374896806423294
 20
-257.1107819734476152
 10
356.08107956108659664
 20
-257.0420746719958629
 10
356.04672591036074891
 20
-274.97468035090264493
 10
356.01237225963484434
 20
-278.01497844014249949
 10
344.34501363186092249
 20
-300.20743680905820838
 10
343.9971829182599663
 20
-367.9871896912091529
 10
306.92959378504082224
 20
-444.0547608109778821
 10
301.05511951091619949
 20
-444.07193763634080597
 10
301.00358903482668893
 20
-464.04429132709668693
 10
302.65256426966931258
 20
-464.06576235880004333
 10
277.56151662075967579
 20
-513.88714432400138321
 10
277.69893122366318039
 20
-546.04216140342043673
 10
273.988736945268613
 20
-546.04216140342043673
 10
273.99732535794890964
 20
-565.01825922312457351
 10
278.01670249287622028
 20
-565.0010823977615928
 10
276.99897559012225656
 20
-625.02979283488730289
 10
273.99303115160819289
 20
-624.99543918416145516
 10
273.988736945268613
 20
-645.3929193026511939
 97
     0
 92
     2
 72
     0
 73
     1
 93
    25
 10
436.69192098934405522
 20
-264.54512670082698378
 10
436.74345146544055751
 20
-268.57631290320836115
 10
444.90244351282871094
 20
-268.61603431184340707
 10
444.91962033819879707
 20
-264.4538748161033368
 10
484.9072697831172718
 20
-265.27836243352436441
 10
507.16843545348433508
 20
-277.16472558467711451
 10
521.59696875835174978
 20
-300.73132998262735782
 10
521.18472494964134967
 20
-368.88897302276336632
 10
562.27169121778774752
 20
-445.42890684001292811
 10
562.92441058157760381
 20
-464.65514217905803207
 10
588.93012418106673067
 20
-514.82328130628059171
 10
588.72400227671153061
 20
-626.40393886392246259
 10
538.91120872419276111
 20
-652.92495722429805483
 10
538.2241357096752381
 20
-653.88685944462258703
 10
343.78247260122259377
 20
-653.81815214317077789
 10
292.52682571821708279
 20
-627.9154994958610132
 10
292.87036222547590114
 20
-514.41103749756996422
 10
317.36451519302460156
 20
-464.24182481877045348
 10
319.32267328439962739
 20
-464.18600013634073775
 10
319.25396598294787509
 20
-445.77244334727174646
 10
361.09671256706366194
 20
-368.33931461114951844
 10
361.78378558158118494
 20
-300.3190861739169577
 10
375.11300206322061968
 20
-275.72187225419048673
 10
397.75205789156302671
 20
-264.63101082764165994
 10
436.69192098934405522
 20
-264.54512670082698378
 97
     0
 75
     0
 76
     1
 98
     0
  0
LWPOLYLINE
  5
af
  8
Monteriggioni_Stadtmauer
100
AcDbEntity
100
AcDbPolyline
  6
CONTINUOUS
420
2302755
 90
    84
 70
   129
 43
0.00233561973871076
 10
401.21554921059441767
 20
-680.12960955125049622
 10
392.02788083937542751
 20
-680.15881383723683484
 10
392.02788083937542751
 20
-669.71530401657082621
 10
361.19547931290168208
 20
-669.73248084193301111
 10
361.22983296362752981
 20
-673.71750432613441717
 10
341.73413617669427822
 20
-673.42549829496533675
 10
341.73413617669427822
 20
-668.20374338463227559
 10
293.28574921614887216
 20
-644.21674946697385167
 10
293.34588581298658028
 20
-645.53975459740240694
 10
273.988736945268613
 20
-645.3929193026511939
 10
273.99303115160819289
 20
-624.99543918416145516
 10
276.99897559012225656
 20
-625.02979283488730289
 10
278.01670249287622028
 20
-565.0010823977615928
 10
273.99732535794890964
 20
-565.01825922312457351
 10
273.988736945268613
 20
-546.04216140342043673
 10
277.69893122366318039
 20
-546.04216140342043673
 10
277.56151662075967579
 20
-513.88714432400138321
 10
302.65256426966931258
 20
-464.06576235880004333
 10
301.00358903482668893
 20
-464.04429132709668693
 10
301.05511951091619949
 20
-444.07193763634080597
 10
306.92959378504082224
 20
-444.0547608109778821
 10
343.9971829182599663
 20
-367.9871896912091529
 10
344.34501363186092249
 20
-300.20743680905820838
 10
356.01237225963484434
 20
-278.01497844014249949
 10
356.08107956108659664
 20
-257.0420746719958629
 10
375.9374896806423294
 20
-257.1107819734476152
 10
397.99253344665407894
 20
-247.00222024735901982
 10
432.99890353632076767
 20
-247.00222024735904824
 10
433.02466877436512505
 20
-239.06652692968194174
 10
450.02972588367327944
 20
-239.10088058040781789
 10
449.89124539507020017
 20
-246.86382441109935826
 10
485.00174232261394991
 20
-246.93351294590732437
 10
506.61018862918933792
 20
-256.93042530713699989
 10
527.08496446181084139
 20
-256.99913260858875219
 10
526.84738443562082466
 20
-277.98917279936961222
 10
537.04752317231452707
 20
-298.94494014488213907
 10
537.0067897806285373
 20
-367.82241996224445302
 10
576.05609357154628469
 20
-444.96513255521387009
 10
580.99872506973144937
 20
-444.99519199959905791
 10
580.89136991121290521
 20
-465.24237489616206176
 10
579.59881380265358075
 20
-465.24237489616206176
 10
603.01512097867657758
 20
-511.94616305798865596
 10
603.03229780403955829
 20
-545.99063092733092617
 10
608.01357715929145797
 20
-545.99063092733081248
 10
607.90258228973800669
 20
-564.88622260148895293
 10
603.80096073903109755
 20
-564.85078517583633584
 10
603.50895470786258556
 20
-625.33038727874020424
 10
607.74733636616474541
 20
-625.3690351358056887
 10
607.90622200077461912
 20
-645.6677485084582031
 10
587.92635344891948534
 20
-645.91788602780491146
 10
587.93300946875024238
 20
-643.69928432186588907
 10
540.01265640224528397
 20
-668.11641083362394511
 10
539.89694959269229457
 20
-673.0918036444001018
 10
521.04301614039820834
 20
-673.03043131161678048
 10
520.90989574383047511
 20
-668.99065669657159106
 10
419.06849816696939115
 20
-668.97347987120861035
 10
419.04702713527512969
 20
-680.07292971042147656
 10
410.15024727006567673
 20
-680.10120936670023184
 10
410.21877423647902106
 20
-653.84162786813021739
 10
538.2241357096752381
 20
-653.88685944462258703
 10
588.72400227671153061
 20
-626.40393886392246259
 10
588.93012418106673067
 20
-514.82328130628059171
 10
562.92441058157760381
 20
-464.65514217905803207
 10
562.27169121778774752
 20
-445.42890684001292811
 10
521.18472494964134967
 20
-368.88897302276336632
 10
521.59696875835174978
 20
-300.73132998262735782
 10
507.16843545348433508
 20
-277.16472558467711451
 10
484.9072697831172718
 20
-265.27836243352436441
 10
444.91962033819879707
 20
-264.4538748161033368
 10
444.90244351282871094
 20
-268.61603431184340707
 10
436.74345146544055751
 20
-268.57631290320836115
 10
436.69192098934405522
 20
-264.54512670082698378
 10
397.75205789156302671
 20
-264.63101082764165994
 10
375.11300206322061968
 20
-275.72187225419048673
 10
361.78378558158118494
 20
-300.3190861739169577
 10
361.09671256706366194
 20
-368.33931461114951844
 10
319.25396598294787509
 20
-445.77244334727174646
 10
319.32267328439962739
 20
-464.18600013634073775
 10
317.36451519302460156
 20
-464.24182481877045348
 10
292.87036222547590114
 20
-514.41103749756996422
 10
292.52682571821708279
 20
-627.9154994958610132
 10
343.78247260122259377
 20
-653.81815214317077789
 10
401.2182159829077932
 20
-653.83844745885335215
 10
401.21554921059441767
 20
-680.12960955125049622
  0
HATCH
  5
b0
330
6d
100
AcDbEntity
  8
Monteriggioni_Stadtmauer
420
8227727
100
AcDbHatch
 10
0.0
 20
0.0
 30
0.0
210
0.0
220
0.0
230
1.0
  2
SOLID
 70
     1
 71
     0
 91
     1
 92
     2
 72
     0
 73
     1
 93
    84
 10
401.21554921059441767
 20
-680.12960955125049622
 10
392.02788083937542751
 20
-680.15881383723683484
 10
392.02788083937542751
 20
-669.71530401657082621
 10
361.19547931290168208
 20
-669.73248084193301111
 10
361.22983296362752981
 20
-673.71750432613441717
 10
341.73413617669427822
 20
-673.42549829496533675
 10
341.73413617669427822
 20
-668.20374338463227559
 10
293.28574921614887216
 20
-644.21674946697385167
 10
293.34588581298658028
 20
-645.53975459740240694
 10
273.988736945268613
 20
-645.3929193026511939
 10
273.99303115160819289
 20
-624.99543918416145516
 10
276.99897559012225656
 20
-625.02979283488730289
 10
278.01670249287622028
 20
-565.0010823977615928
 10
273.99732535794890964
 20
-565.01825922312457351
 10
273.988736945268613
 20
-546.04216140342043673
 10
277.69893122366318039
 20
-546.04216140342043673
 10
277.56151662075967579
 20
-513.88714432400138321
 10
302.65256426966931258
 20
-464.06576235880004333
 10
301.00358903482668893
 20
-464.04429132709668693
 10
301.05511951091619949
 20
-444.07193763634080597
 10
306.92959378504082224
 20
-444.0547608109778821
 10
343.9971829182599663
 20
-367.9871896912091529
 10
344.34501363186092249
 20
-300.20743680905820838
 10
356.01237225963484434
 20
-278.01497844014249949
 10
356.08107956108659664
 20
-257.0420746719958629
 10
375.9374896806423294
 20
-257.1107819734476152
 10
397.99253344665407894
 20
-247.00222024735901982
 10
432.99890353632076767
 20
-247.00222024735904824
 10
433.02466877436512505
 20
-239.06652692968194174
 10
450.02972588367327944
 20
-239.10088058040781789
 10
449.89124539507020017
 20
-246.86382441109935826
 10
485.00174232261394991
 20
-246.93351294590732437
 10
506.61018862918933792
 20
-256.93042530713699989
 10
527.08496446181084139
 20
-256.99913260858875219
 10
526.84738443562082466
 20
-277.98917279936961222
 10
537.04752317231452707
 20
-298.94494014488213907
 10
537.0067897806285373
 20
-367.82241996224445302
 10
576.05609357154628469
 20
-444.96513255521387009
 10
580.99872506973144937
 20
-444.99519199959905791
 10
580.89136991121290521
 20
-465.24237489616206176
 10
579.59881380265358075
 20
-465.24237489616206176
 10
603.01512097867657758
 20
-511.94616305798865596
 10
603.03229780403955829
 20
-545.99063092733092617
 10
608.01357715929145797
 20
-545.99063092733081248
 10
607.90258228973800669
 20
-564.88622260148895293
 10
603.80096073903109755
 20
-564.85078517583633584
 10
603.50895470786258556
 20
-625.33038727874020424
 10
607.74733636616474541
 20
-625.3690351358056887
 10
607.90622200077461912
 20
-645.6677485084582031
 10
587.92635344891948534
 20
-645.91788602780491146
 10
587.93300946875024238
 20
-643.69928432186588907
 10
540.01265640224528397
 20
-668.11641083362394511
 10
539.89694959269229457
 20
-673.0918036444001018
 10
521.04301614039820834
 20
-673.03043131161678048
 10
520.90989574383047511
 20
-668.99065669657159106
 10
419.06849816696939115
 20
-668.97347987120861035
 10
419.04702713527512969
 20
-680.07292971042147656
 10
410.15024727006567673
 20
-680.10120936670023184
 10
410.21877423647902106
 20
-653.84162786813021739
 10
538.2241357096752381
 20
-653.88685944462258703
 10
588.72400227671153061
 20
-626.40393886392246259
 10
588.93012418106673067
 20
-514.82328130628059171
 10
562.92441058157760381
 20
-464.65514217905803207
 10
562.27169121778774752
 20
-445.42890684001292811
 10
521.18472494964134967
 20
-368.88897302276336632
 10
521.59696875835174978
 20
-300.73132998262735782
 10
507.16843545348433508
 20
-277.16472558467711451
 10
484.9072697831172718
 20
-265.27836243352436441
 10
444.91962033819879707
 20
-264.4538748161033368
 10
444.90244351282871094
 20
-268.61603431184340707
 10
436.74345146544055751
 20
-268.57631290320836115
 10
436.69192098934405522
 20
-264.54512670082698378
 10
397.75205789156302671
 20
-264.63101082764165994
 10
375.11300206322061968
 20
-275.72187225419048673
 10
361.78378558158118494
 20
-300.3190861739169577
 10
361.09671256706366194
 20
-368.33931461114951844
 10
319.25396598294787509
 20
-445.77244334727174646
 10
319.32267328439962739
 20
-464.18600013634073775
 10
317.36451519302460156
 20
-464.24182481877045348
 10
292.87036222547590114
 20
-514.41103749756996422
 10
292.52682571821708279
 20
-627.9154994958610132
 10
343.78247260122259377
 20
-653.81815214317077789
 10
401.2182159829077932
 20
-653.83844745885335215
 10
401.21554921059441767
 20
-680.12960955125049622
 97
     0
 75
     0
 76
     1
 98
     0
  0
LWPOLYLINE
  5
b1
  8
Monteriggioni_low walls
100
AcDbEntity
100
AcDbPolyline
  6
CONTINUOUS
420
2302755
 90
     7
 70
   129
 43
0.00233561973871076
 10
350.95883066774501913
 20
-434.49481119357022862
 10
325.36617099698952416
 20
-434.46135130979240557
 10
327.80122679599463709
 20
-429.95509862427718417
 10
348.00434840387441682
 20
-429.99116794799465424
 10
348.00434840387441682
 20
-417.9502133685683134
 10
351.02746966775322335
 20
-417.98456701929421797
 10
350.95883066774501913
 20
-434.49481119357022862
  0
HATCH
  5
b2
330
6d
100
AcDbEntity
  8
Monteriggioni_low walls
420
12504912
100
AcDbHatch
 10
0.0
 20
0.0
 30
0.0
210
0.0
220
0.0
230
1.0
  2
SOLID
 70
     1
 71
     0
 91
     1
 92
     2
 72
     0
 73
     1
 93
     7
 10
350.95883066774501913
 20
-434.49481119357022862
 10
325.36617099698952416
 20
-434.46135130979240557
 10
327.80122679599463709
 20
-429.95509862427718417
 10
348.00434840387441682
 20
-429.99116794799465424
 10
348.00434840387441682
 20
-417.9502133685683134
 10
351.02746966775322335
 20
-417.98456701929421797
 10
350.95883066774501913
 20
-434.49481119357022862
 97
     0
 75
     0
 76
     1
 98
     0
  0
LWPOLYLINE
  5
b3
  8
Monteriggioni_low walls
100
AcDbEntity
100
AcDbPolyline
  6
CONTINUOUS
420
2302755
 90
    14
 70
   129
 43
0.00233561973871076
 10
364.99222868782965179
 20
-418.00174384465714184
 10
368.99442899739642598
 20
-418.00174384465714184
 10
368.9987232037370859
 20
-430.00834477335752126
 10
381.99728579714775378
 20
-429.97828532897233345
 10
382.08316992396242995
 20
-470.7217150898840714
 10
396.06510576940178225
 20
-470.75606874060997598
 10
395.99639846794997311
 20
-458.07957162275465635
 10
401.04638512465658096
 20
-457.97651067057694263
 10
401.1150924261083901
 20
-475.15333603352456748
 10
378.82296476257107543
 20
-475.1191721040118523
 10
378.73033412949433796
 20
-460.00210122101123034
 10
378.85392675572825283
 20
-434.4442599233387341
 10
365.00940551319251881
 20
-434.47861357406463867
 10
364.99222868782965179
 20
-418.00174384465714184
  0
HATCH
  5
b4
330
6d
100
AcDbEntity
  8
Monteriggioni_low walls
420
12504912
100
AcDbHatch
 10
0.0
 20
0.0
 30
0.0
210
0.0
220
0.0
230
1.0
  2
SOLID
 70
     1
 71
     0
 91
     1
 92
     2
 72
     0
 73
     1
 93
    14
 10
364.99222868782965179
 20
-418.00174384465714184
 10
368.99442899739642598
 20
-418.00174384465714184
 10
368.9987232037370859
 20
-430.00834477335752126
 10
381.99728579714775378
 20
-429.97828532897233345
 10
382.08316992396242995
 20
-470.7217150898840714
 10
396.06510576940178225
 20
-470.75606874060997598
 10
395.99639846794997311
 20
-458.07957162275465635
 10
401.04638512465658096
 20
-457.97651067057694263
 10
401.1150924261083901
 20
-475.15333603352456748
 10
378.82296476257107543
 20
-475.1191721040118523
 10
378.73033412949433796
 20
-460.00210122101123034
 10
378.85392675572825283
 20
-434.4442599233387341
 10
365.00940551319251881
 20
-434.47861357406463867
 10
364.99222868782965179
 20
-418.00174384465714184
 97
     0
 75
     0
 76
     1
 98
     0
  0
LWPOLYLINE
  5
b5
  8
Monteriggioni_low walls
100
AcDbEntity
100
AcDbPolyline
  6
CONTINUOUS
420
2302755
 90
    15
 70
   129
 43
0.00233561973871076
 10
390.99458743863010568
 20
-486.97401124716020604
 10
406.04484130527430352
 20
-487.0053455339584616
 10
407.10980447777711788
 20
-489.06656457751216749
 10
407.07545082705121331
 20
-493.94478298058930932
 10
416.48835112594650809
 20
-505.590670576667776
 10
428.51212888000986823
 20
-511.29337659716640019
 10
428.47777522928390681
 20
-513.49201024362366752
 10
422.22541079717098
 20
-518.91988705831511197
 10
420.19854540434317869
 20
-517.09914356984268125
 10
424.38969079290239961
 20
-512.97670548273526947
 10
415.52644890562146429
 20
-508.0297797782063185
 10
404.39586607043139566
 20
-494.94103885164025769
 10
404.29280511825368194
 20
-489.78799124275593613
 10
391.01868644017980614
 20
-489.78957792821819339
 10
390.99458743863010568
 20
-486.97401124716020604
  0
HATCH
  5
b6
330
6d
100
AcDbEntity
  8
Monteriggioni_low walls
420
12504912
100
AcDbHatch
 10
0.0
 20
0.0
 30
0.0
210
0.0
220
0.0
230
1.0
  2
SOLID
 70
     1
 71
     0
 91
     1
 92
     2
 72
     0
 73
     1
 93
    15
 10
390.99458743863010568
 20
-486.97401124716020604
 10
406.04484130527430352
 20
-487.0053455339584616
 10
407.10980447777711788
 20
-489.06656457751216749
 10
407.07545082705121331
 20
-493.94478298058930932
 10
416.48835112594650809
 20
-505.590670576667776
 10
428.51212888000986823
 20
-511.29337659716640019
 10
428.47777522928390681
 20
-513.49201024362366752
 10
422.22541079717098
 20
-518.91988705831511197
 10
420.19854540434317869
 20
-517.09914356984268125
 10
424.38969079290239961
 20
-512.97670548273526947
 10
415.52644890562146429
 20
-508.0297797782063185
 10
404.39586607043139566
 20
-494.94103885164025769
 10
404.29280511825368194
 20
-489.78799124275593613
 10
391.01868644017980614
 20
-489.78957792821819339
 10
390.99458743863010568
 20
-486.97401124716020604
 97
     0
 75
     0
 76
     1
 98
     0
  0
LWPOLYLINE
  5
b7
  8
Monteriggioni_low walls
100
AcDbEntity
100
AcDbPolyline
  6
CONTINUOUS
420
2302755
 90
    10
 70
   129
 43
0.00233561973871076
 10
500.00462572553522023
 20
-475.51223774794954124
 10
481.00450718917761606
 20
-475.35945793787976754
 10
481.02168401454053992
 20
-457.9765106705767721
 10
486.22626209951368992
 20
-457.99368749593975281
 10
486.31214622632836608
 20
-470.68736143915805314
 10
500.00207604059761479
 20
-470.63583096306922471
 10
500.00359463134492444
 20
-468.0233186233459719
 10
503.00224906529990676
 20
-468.08805543544013972
 10
503.02774698941180986
 20
-475.51223774794959809
 10
500.00462572553522023
 20
-475.51223774794954124
  0
HATCH
  5
b8
330
6d
100
AcDbEntity
  8
Monteriggioni_low walls
420
12504912
100
AcDbHatch
 10
0.0
 20
0.0
 30
0.0
210
0.0
220
0.0
230
1.0
  2
SOLID
 70
     1
 71
     0
 91
     1
 92
     2
 72
     0
 73
     1
 93
    10
 10
500.00462572553522023
 20
-475.51223774794954124
 10
481.00450718917761606
 20
-475.35945793787976754
 10
481.02168401454053992
 20
-457.9765106705767721
 10
486.22626209951368992
 20
-457.99368749593975281
 10
486.31214622632836608
 20
-470.68736143915805314
 10
500.00207604059761479
 20
-470.63583096306922471
 10
500.00359463134492444
 20
-468.0233186233459719
 10
503.00224906529990676
 20
-468.08805543544013972
 10
503.02774698941180986
 20
-475.51223774794959809
 10
500.00462572553522023
 20
-475.51223774794954124
 97
     0
 75
     0
 76
     1
 98
     0
  0
LWPOLYLINE
  5
b9
  8
Monteriggioni_low walls
100
AcDbEntity
100
AcDbPolyline
  6
CONTINUOUS
420
2302755
 90
    11
 70
   129
 43
0.00233561973871076
 10
500.01964562795063785
 20
-461.99282965206799645
 10
500.03642969132363305
 20
-429.03355993401009982
 10
513.09081696716384613
 20
-428.99920628328419525
 10
513.02210966571203699
 20
-418.0060380509977449
 10
517.14454775281944876
 20
-418.04039170172364948
 10
517.0414868006416782
 20
-435.04544881104175147
 10
503.05955095520238274
 20
-435.07980246176765604
 10
503.09390460592828731
 20
-445.04236117227725344
 10
502.02894143342552979
 20
-445.11106847372906259
 10
502.09874007608988222
 20
-461.97598314609479075
 10
500.01964562795063785
 20
-461.99282965206799645
  0
HATCH
  5
ba
330
6d
100
AcDbEntity
  8
Monteriggioni_low walls
420
12504912
100
AcDbHatch
 10
0.0
 20
0.0
 30
0.0
210
0.0
220
0.0
230
1.0
  2
SOLID
 70
     1
 71
     0
 91
     1
 92
     2
 72
     0
 73
     1
 93
    11
 10
500.01964562795063785
 20
-461.99282965206799645
 10
500.03642969132363305
 20
-429.03355993401009982
 10
513.09081696716384613
 20
-428.99920628328419525
 10
513.02210966571203699
 20
-418.0060380509977449
 10
517.14454775281944876
 20
-418.04039170172364948
 10
517.0414868006416782
 20
-435.04544881104175147
 10
503.05955095520238274
 20
-435.07980246176765604
 10
503.09390460592828731
 20
-445.04236117227725344
 10
502.02894143342552979
 20
-445.11106847372906259
 10
502.09874007608988222
 20
-461.97598314609479075
 10
500.01964562795063785
 20
-461.99282965206799645
 97
     0
 75
     0
 76
     1
 98
     0
  0
LWPOLYLINE
  5
bb
  8
Monteriggioni_low walls
100
AcDbEntity
100
AcDbPolyline
  6
CONTINUOUS
420
2302755
 90
     7
 70
   129
 43
0.00233561973871076
 10
556.70660291857200264
 20
-435.06183599498558578
 10
532.01967851713209257
 20
-435.0110951603158469
 10
531.98532486640624484
 20
-417.95450757490897331
 10
533.97783660850814158
 20
-418.00603805099780175
 10
533.97783660850814158
 20
-429.96110850360935274
 10
553.96484596239770326
 20
-429.95428206659397574
 10
556.70660291857200264
 20
-435.06183599498558578
  0
HATCH
  5
bc
330
6d
100
AcDbEntity
  8
Monteriggioni_low walls
420
12504912
100
AcDbHatch
 10
0.0
 20
0.0
 30
0.0
210
0.0
220
0.0
230
1.0
  2
SOLID
 70
     1
 71
     0
 91
     1
 92
     2
 72
     0
 73
     1
 93
     7
 10
556.70660291857200264
 20
-435.06183599498558578
 10
532.01967851713209257
 20
-435.0110951603158469
 10
531.98532486640624484
 20
-417.95450757490897331
 10
533.97783660850814158
 20
-418.00603805099780175
 10
533.97783660850814158
 20
-429.96110850360935274
 10
553.96484596239770326
 20
-429.95428206659397574
 10
556.70660291857200264
 20
-435.06183599498558578
 97
     0
 75
     0
 76
     1
 98
     0
  0
LWPOLYLINE
  5
bd
  8
Monteriggioni_low walls
100
AcDbEntity
100
AcDbPolyline
  6
CONTINUOUS
420
2302755
 90
    16
 70
   129
 43
0.00233561973871076
 10
489.68304329653011564
 20
-490.02834055612493103
 10
478.01573957602488463
 20
-490.02846679783704076
 10
474.87238053460544052
 20
-499.0119464626586705
 10
466.38702880530934181
 20
-506.91328612961461886
 10
456.61341517379213428
 20
-512.47857754720962475
 10
461.02785929206964965
 20
-517.18502769665724372
 10
461.02785929206964965
 20
-518.98859435976680743
 10
458.58875009053110716
 20
-519.00577118512967445
 10
452.42226978523291336
 20
-511.20749247035149665
 10
464.94417547482169084
 20
-504.78335978460910383
 10
472.75963101496284935
 20
-497.07096519664565903
 10
475.02697196287192583
 20
-489.94258267102242144
 10
475.02697196287192583
 20
-487.07405283541015706
 10
489.0432614590371827
 20
-487.02252235932132862
 10
489.67880399746627518
 20
-487.00534553395834791
 10
489.68304329653011564
 20
-490.02834055612493103
  0
HATCH
  5
be
330
6d
100
AcDbEntity
  8
Monteriggioni_low walls
420
12504912
100
AcDbHatch
 10
0.0
 20
0.0
 30
0.0
210
0.0
220
0.0
230
1.0
  2
SOLID
 70
     1
 71
     0
 91
     1
 92
     2
 72
     0
 73
     1
 93
    16
 10
489.68304329653011564
 20
-490.02834055612493103
 10
478.01573957602488463
 20
-490.02846679783704076
 10
474.87238053460544052
 20
-499.0119464626586705
 10
466.38702880530934181
 20
-506.91328612961461886
 10
456.61341517379213428
 20
-512.47857754720962475
 10
461.02785929206964965
 20
-517.18502769665724372
 10
461.02785929206964965
 20
-518.98859435976680743
 10
458.58875009053110716
 20
-519.00577118512967445
 10
452.42226978523291336
 20
-511.20749247035149665
 10
464.94417547482169084
 20
-504.78335978460910383
 10
472.75963101496284935
 20
-497.07096519664565903
 10
475.02697196287192583
 20
-489.94258267102242144
 10
475.02697196287192583
 20
-487.07405283541015706
 10
489.0432614590371827
 20
-487.02252235932132862
 10
489.67880399746627518
 20
-487.00534553395834791
 10
489.68304329653011564
 20
-490.02834055612493103
 97
     0
 75
     0
 76
     1
 98
     0
  0
LWPOLYLINE
  5
bf
  8
Monteriggioni_low walls
100
AcDbEntity
100
AcDbPolyline
  6
CONTINUOUS
420
2302755
 90
    20
 70
   129
 43
0.00233561973871076
 10
448.93537423655442353
 20
-507.60035914413253977
 10
431.99902442868813068
 20
-507.5660054934066352
 10
421.17762445003108951
 20
-502.34425058307056133
 10
415.68104033388789276
 20
-496.60719091184608942
 10
410.97459018444021694
 20
-488.98068045069732079
 10
410.97459018444021694
 20
-484.89259601431581359
 10
415.20008922372534244
 20
-484.96130331576762273
 10
416.16199144405038624
 20
-488.3966683883571136
 10
421.55551460801598296
 20
-495.06127662918078158
 10
428.35753745174321239
 20
-500.00820233370967571
 10
434.12895077369358887
 20
-502.0007140758116293
 10
447.93911836550347516
 20
-502.0007140758116293
 10
458.24521358327206144
 20
-495.67964234224689335
 10
464.87546817336976801
 20
-486.98816870859542405
 10
465.08159007772519544
 20
-484.686474109960443
 10
471.12783260548269482
 20
-484.65212045923453843
 10
471.19653990693450396
 20
-488.60279029271248419
 10
466.9366872169234739
 20
-494.88950837555131557
 10
459.61935961230778958
 20
-501.79459217145631555
 10
448.93537423655442353
 20
-507.60035914413253977
  0
HATCH
  5
c0
330
6d
100
AcDbEntity
  8
Monteriggioni_low walls
420
12504912
100
AcDbHatch
 10
0.0
 20
0.0
 30
0.0
210
0.0
220
0.0
230
1.0
  2
SOLID
 70
     1
 71
     0
 91
     1
 92
     2
 72
     0
 73
     1
 93
    20
 10
448.93537423655442353
 20
-507.60035914413253977
 10
431.99902442868813068
 20
-507.5660054934066352
 10
421.17762445003108951
 20
-502.34425058307056133
 10
415.68104033388789276
 20
-496.60719091184608942
 10
410.97459018444021694
 20
-488.98068045069732079
 10
410.97459018444021694
 20
-484.89259601431581359
 10
415.20008922372534244
 20
-484.96130331576762273
 10
416.16199144405038624
 20
-488.3966683883571136
 10
421.55551460801598296
 20
-495.06127662918078158
 10
428.35753745174321239
 20
-500.00820233370967571
 10
434.12895077369358887
 20
-502.0007140758116293
 10
447.93911836550347516
 20
-502.0007140758116293
 10
458.24521358327206144
 20
-495.67964234224689335
 10
464.87546817336976801
 20
-486.98816870859542405
 10
465.08159007772519544
 20
-484.686474109960443
 10
471.12783260548269482
 20
-484.65212045923453843
 10
471.19653990693450396
 20
-488.60279029271248419
 10
466.9366872169234739
 20
-494.88950837555131557
 10
459.61935961230778958
 20
-501.79459217145631555
 10
448.93537423655442353
 20
-507.60035914413253977
 97
     0
 75
     0
 76
     1
 98
     0
  0
LWPOLYLINE
  5
c1
  8
Monteriggioni_low walls
100
AcDbEntity
100
AcDbPolyline
  6
CONTINUOUS
420
2302755
 90
    15
 70
   129
 43
0.00233561973871076
 10
408.77595653798300646
 20
-475.30792746179122332
 10
413.51676033815658684
 20
-475.23922016033947102
 10
414.75349176428881037
 20
-466.58210017741384945
 10
418.46368604268548097
 20
-459.84878463513842917
 10
424.16639206318404831
 20
-453.52771290157369322
 10
428.76978126045401041
 20
-450.77942084350206642
 10
431.65548792142919865
 20
-450.64200624059850497
 10
431.38065871562207576
 20
-444.66447101429270106
 10
427.67046443722540516
 20
-445.48895863171418341
 10
422.99836793850363392
 20
-448.58078719704479909
 10
416.81471080784251626
 20
-453.87124940883262525
 10
413.65417494106014829
 20
-458.54334590755439649
 10
410.49363907427778031
 20
-464.24605192805302067
 10
409.18820034669374763
 20
-469.33039223548547625
 10
408.77595653798300646
 20
-475.30792746179122332
  0
HATCH
  5
c2
330
6d
100
AcDbEntity
  8
Monteriggioni_low walls
420
12504912
100
AcDbHatch
 10
0.0
 20
0.0
 30
0.0
210
0.0
220
0.0
230
1.0
  2
SOLID
 70
     1
 71
     0
 91
     1
 92
     2
 72
     0
 73
     1
 93
    15
 10
408.77595653798300646
 20
-475.30792746179122332
 10
413.51676033815658684
 20
-475.23922016033947102
 10
414.75349176428881037
 20
-466.58210017741384945
 10
418.46368604268548097
 20
-459.84878463513842917
 10
424.16639206318404831
 20
-453.52771290157369322
 10
428.76978126045401041
 20
-450.77942084350206642
 10
431.65548792142919865
 20
-450.64200624059850497
 10
431.38065871562207576
 20
-444.66447101429270106
 10
427.67046443722540516
 20
-445.48895863171418341
 10
422.99836793850363392
 20
-448.58078719704479909
 10
416.81471080784251626
 20
-453.87124940883262525
 10
413.65417494106014829
 20
-458.54334590755439649
 10
410.49363907427778031
 20
-464.24605192805302067
 10
409.18820034669374763
 20
-469.33039223548547625
 10
408.77595653798300646
 20
-475.30792746179122332
 97
     0
 75
     0
 76
     1
 98
     0
  0
LWPOLYLINE
  5
c3
  8
Monteriggioni_low walls
100
AcDbEntity
100
AcDbPolyline
  6
CONTINUOUS
420
2302755
 90
    15
 70
   129
 43
0.00233561973871076
 10
473.36081990266598041
 20
-475.30792746179122332
 10
467.79552848507097451
 20
-475.37663476324303247
 10
467.65811388216741307
 20
-470.22358715435876775
 10
465.80301674296907777
 20
-464.93312494257088474
 10
462.36765167037953006
 20
-459.50524812787944029
 10
457.55814056875419737
 20
-454.76444432770591675
 10
453.50440978309859474
 20
-452.42839607834503113
 10
450.34387391631622677
 20
-451.53520115947173963
 10
450.48128851921978821
 20
-445.07671482300344223
 10
455.97787263536304181
 20
-446.51956815349103636
 10
461.54316405295804771
 20
-450.57329893914669583
 10
466.28396785313157125
 20
-455.5889319451273991
 10
469.71933292572111895
 20
-460.87939415691528211
 10
472.26150307943737516
 20
-465.55149065563699651
 10
473.36081990266598041
 20
-475.30792746179122332
  0
HATCH
  5
c4
330
6d
100
AcDbEntity
  8
Monteriggioni_low walls
420
12504912
100
AcDbHatch
 10
0.0
 20
0.0
 30
0.0
210
0.0
220
0.0
230
1.0
  2
SOLID
 70
     1
 71
     0
 91
     1
 92
     2
 72
     0
 73
     1
 93
    15
 10
473.36081990266598041
 20
-475.30792746179122332
 10
467.79552848507097451
 20
-475.37663476324303247
 10
467.65811388216741307
 20
-470.22358715435876775
 10
465.80301674296907777
 20
-464.93312494257088474
 10
462.36765167037953006
 20
-459.50524812787944029
 10
457.55814056875419737
 20
-454.76444432770591675
 10
453.50440978309859474
 20
-452.42839607834503113
 10
450.34387391631622677
 20
-451.53520115947173963
 10
450.48128851921978821
 20
-445.07671482300344223
 10
455.97787263536304181
 20
-446.51956815349103636
 10
461.54316405295804771
 20
-450.57329893914669583
 10
466.28396785313157125
 20
-455.5889319451273991
 10
469.71933292572111895
 20
-460.87939415691528211
 10
472.26150307943737516
 20
-465.55149065563699651
 10
473.36081990266598041
 20
-475.30792746179122332
 97
     0
 75
     0
 76
     1
 98
     0
  0
ENDSEC
0
SECTION
2
OBJECTS
0
DICTIONARY
5
C
330
0
100
AcDbDictionary
281
   1
3
ACAD_GROUP
350
D
3
ACAD_LAYOUT
350
1A
3
ACAD_MLEADERSTYLE
350
43
3
ACAD_MLINESTYLE
350
17
3
ACAD_PLOTSETTINGS
350
19
3
ACAD_PLOTSTYLENAME
350
E
3
ACAD_TABLESTYLE
350
42
3
ACAD_VISUALSTYLE
350
2A
0
DICTIONARY
5
D
102
{ACAD_REACTORS
330
C
102
}
330
C
100
AcDbDictionary
281
   1
0
DICTIONARY
5
1A
102
{ACAD_REACTORS
330
C
102
}
330
C
100
AcDbDictionary
281
   1
3
Layout1
350
1E
3
Layout2
350
26
3
Model
350
22
0
DICTIONARY
5
43
102
{ACAD_REACTORS
330
C
102
}
330
C
100
AcDbDictionary
281
   1
0
DICTIONARY
5
17
102
{ACAD_REACTORS
330
C
102
}
330
C
100
AcDbDictionary
281
   1
3
Standard
350
18
0
DICTIONARY
5
19
102
{ACAD_REACTORS
330
C
102
}
330
C
100
AcDbDictionary
281
   1
0
ACDBDICTIONARYWDFLT
5
E
102
{ACAD_REACTORS
330
C
102
}
330
C
100
AcDbDictionary
281
   1
3
Normal
350
F
100
AcDbDictionaryWithDefault
340
F
0
DICTIONARY
5
42
102
{ACAD_REACTORS
330
C
102
}
330
C
100
AcDbDictionary
281
   1
0
DICTIONARY
5
2A
102
{ACAD_REACTORS
330
C
102
}
330
C
100
AcDbDictionary
281
   1
3
2dWireframe
350
2F
3
3D Hidden
350
31
3
3dWireframe
350
30
3
Basic
350
32
3
Brighten
350
36
3
ColorChange
350
3A
3
Conceptual
350
34
3
Dim
350
35
3
Facepattern
350
39
3
Flat
350
2B
3
FlatWithEdges
350
2C
3
Gouraud
350
2D
3
GouraudWithEdges
350
2E
3
Linepattern
350
38
3
Realistic
350
33
3
Thicken
350
37
0
LAYOUT
5
1E
102
{ACAD_REACTORS
330
1A
102
}
330
1A
100
AcDbPlotSettings
1

2
none_device
4

6

40
0.0
41
0.0
42
0.0
43
0.0
44
0.0
45
0.0
46
0.0
47
0.0
48
0.0
49
0.0
140
0.0
141
0.0
142
1.0
143
1.0
70
 688
72
   0
73
   0
74
   5
7

75
  16
76
   0
77
   2
78
 300
147
1.0
148
0.0
149
0.0
100
AcDbLayout
1
Layout1
70
   1
71
   1
10
0.0
20
0.0
11
12.0
21
9.0
12
0.0
22
0.0
32
0.0
14
1.000000000000000E+20
24
1.000000000000000E+20
34
1.000000000000000E+20
15
-1.000000000000000E+20
25
-1.000000000000000E+20
35
-1.000000000000000E+20
146
0.0
13
0.0
23
0.0
33
0.0
16
1.0
26
0.0
36
0.0
17
0.0
27
1.0
37
0.0
76
   0
330
1B
0
LAYOUT
5
26
102
{ACAD_REACTORS
330
1A
102
}
330
1A
100
AcDbPlotSettings
1

2
none_device
4

6

40
0.0
41
0.0
42
0.0
43
0.0
44
0.0
45
0.0
46
0.0
47
0.0
48
0.0
49
0.0
140
0.0
141
0.0
142
1.0
143
1.0
70
 688
72
   0
73
   0
74
   5
7

75
  16
76
   0
77
   2
78
 300
147
1.0
148
0.0
149
0.0
100
AcDbLayout
1
Layout2
70
   1
71
   2
10
0.0
20
0.0
11
0.0
21
0.0
12
0.0
22
0.0
32
0.0
14
0.0
24
0.0
34
0.0
15
0.0
25
0.0
35
0.0
146
0.0
13
0.0
23
0.0
33
0.0
16
1.0
26
0.0
36
0.0
17
0.0
27
1.0
37
0.0
76
   0
330
23
0
LAYOUT
5
22
102
{ACAD_REACTORS
330
1A
102
}
330
1A
100
AcDbPlotSettings
1

2
none_device
4

6

40
0.0
41
0.0
42
0.0
43
0.0
44
0.0
45
0.0
46
0.0
47
0.0
48
0.0
49
0.0
140
0.0
141
0.0
142
1.0
143
1.0
70
1712
72
   0
73
   0
74
   0
7

75
   0
76
   0
77
   2
78
 300
147
1.0
148
0.0
149
0.0
100
AcDbLayout
1
Model
70
   1
71
   0
10
0.0
20
0.0
11
12.0
21
9.0
12
0.0
22
0.0
32
0.0
14
30.0
24
49.75
34
0.0
15
130.5
25
163.1318914119703
35
0.0
146
0.0
13
0.0
23
0.0
33
0.0
16
1.0
26
0.0
36
0.0
17
0.0
27
1.0
37
0.0
76
   0
330
1F
331
29
0
MLINESTYLE
5
18
102
{ACAD_REACTORS
330
17
102
}
330
17
100
AcDbMlineStyle
2
Standard
70
   0
3

62
 256
51
90.0
52
90.0
71
   2
49
0.5
62
 256
6
BYLAYER
49
-0.5
62
 256
6
BYLAYER
0
ACDBPLACEHOLDER
5
F
102
{ACAD_REACTORS
330
E
102
}
330
E
0
VISUALSTYLE
5
2F
102
{ACAD_REACTORS
330
2A
102
}
330
2A
100
AcDbVisualStyle
2
2dWireframe
70
   4
71
   0
72
   2
73
   0
90
      0
40
-0.6
41
-30.0
62
   5
63
   7
421
16777215
74
   1
91
      4
64
   7
65
 257
75
   1
175
   1
42
1.0
92
      0
66
 257
43
1.0
76
   1
77
   6
78
   2
67
   7
79
   5
170
   0
171
   0
290
   0
174
   0
93
      1
44
0.0
173
   0
291
   0
45
0.0
1001
ACAD
1000
AcDbSavedByObjectVersion
1070
   0
0
VISUALSTYLE
5
31
102
{ACAD_REACTORS
330
2A
102
}
330
2A
100
AcDbVisualStyle
2
3D Hidden
70
   6
71
   1
72
   2
73
   2
90
      0
40
-0.6
41
-30.0
62
   5
63
   7
421
16777215
74
   2
91
      2
64
   7
65
 257
75
   2
175
   1
42
40.0
92
      0
66
 257
43
1.0
76
   1
77
   6
78
   2
67
   7
79
   3
170
   0
171
   0
290
   0
174
   0
93
      1
44
0.0
173
   0
291
   0
45
0.0
1001
ACAD
1000
AcDbSavedByObjectVersion
1070
   0
0
VISUALSTYLE
5
30
102
{ACAD_REACTORS
330
2A
102
}
330
2A
100
AcDbVisualStyle
2
3dWireframe
70
   5
71
   0
72
   2
73
   0
90
      0
40
-0.6
41
-30.0
62
   5
63
   7
421
16777215
74
   1
91
      4
64
   7
65
 257
75
   1
175
   1
42
1.0
92
      0
66
 257
43
1.0
76
   1
77
   6
78
   2
67
   7
79
   5
170
   0
171
   0
290
   0
174
   0
93
      1
44
0.0
173
   0
291
   0
45
0.0
1001
ACAD
1000
AcDbSavedByObjectVersion
1070
   0
0
VISUALSTYLE
5
32
102
{ACAD_REACTORS
330
2A
102
}
330
2A
100
AcDbVisualStyle
2
Basic
70
   7
71
   1
72
   0
73
   1
90
      0
40
-0.6
41
-30.0
62
   5
63
   7
421
16777215
74
   0
91
      4
64
   7
65
 257
75
   1
175
   1
42
1.0
92
      8
66
   7
43
1.0
76
   1
77
   6
78
   2
67
   7
79
   5
170
   0
171
   0
290
   0
174
   0
93
      1
44
0.0
173
   0
291
   1
45
0.0
1001
ACAD
1000
AcDbSavedByObjectVersion
1070
   0
0
VISUALSTYLE
5
36
102
{ACAD_REACTORS
330
2A
102
}
330
2A
100
AcDbVisualStyle
2
Brighten
70
  12
71
   2
72
   2
73
   0
90
      0
40
-0.6
41
-30.0
62
   5
63
   7
421
16777215
74
   1
91
      4
64
   7
65
 257
75
   1
175
   1
42
1.0
92
      8
66
   7
43
1.0
76
   1
77
   6
78
   2
67
   7
79
   5
170
   0
171
   0
290
   0
174
   0
93
      1
44
50.0
173
   0
291
   1
45
0.0
1001
ACAD
1000
AcDbSavedByObjectVersion
1070
   0
0
VISUALSTYLE
5
3A
102
{ACAD_REACTORS
330
2A
102
}
330
2A
100
AcDbVisualStyle
2
ColorChange
70
  16
71
   2
72
   2
73
   3
90
      0
40
-0.6
41
-30.0
62
   5
63
   8
421
8421504
74
   1
91
      4
64
   7
65
 257
75
   1
175
   1
42
1.0
92
      8
66
   8
424
8421504
43
1.0
76
   1
77
   6
78
   2
67
   7
79
   5
170
   0
171
   0
290
   0
174
   0
93
      1
44
0.0
173
   0
291
   1
45
0.0
1001
ACAD
1000
AcDbSavedByObjectVersion
1070
   0
0
VISUALSTYLE
5
34
102
{ACAD_REACTORS
330
2A
102
}
330
2A
100
AcDbVisualStyle
2
Conceptual
70
   9
71
   3
72
   2
73
   0
90
      0
40
-0.6
41
-30.0
62
   5
63
   7
421
16777215
74
   2
91
      2
64
   7
65
 257
75
   1
175
   1
42
40.0
92
      8
66
   7
43
1.0
76
   1
77
   6
78
   2
67
   7
79
   3
170
   0
171
   0
290
   0
174
   0
93
      1
44
0.0
173
   0
291
   0
45
0.0
1001
ACAD
1000
AcDbSavedByObjectVersion
1070
   0
0
VISUALSTYLE
5
35
102
{ACAD_REACTORS
330
2A
102
}
330
2A
100
AcDbVisualStyle
2
Dim
70
  11
71
   2
72
   2
73
   0
90
      0
40
-0.6
41
-30.0
62
   5
63
   7
421
16777215
74
   1
91
      4
64
   7
65
 257
75
   1
175
   1
42
1.0
92
      8
66
   7
43
1.0
76
   1
77
   6
78
   2
67
   7
79
   5
170
   0
171
   0
290
   0
174
   0
93
      1
44
-50.0
173
   0
291
   1
45
0.0
1001
ACAD
1000
AcDbSavedByObjectVersion
1070
   0
0
VISUALSTYLE
5
39
102
{ACAD_REACTORS
330
2A
102
}
330
2A
100
AcDbVisualStyle
2
Facepattern
70
  15
71
   2
72
   2
73
   0
90
      0
40
-0.6
41
-30.0
62
   5
63
   7
421
16777215
74
   1
91
      4
64
   7
65
 257
75
   1
175
   1
42
1.0
92
      8
66
   7
43
1.0
76
   1
77
   6
78
   2
67
   7
79
   5
170
   0
171
   0
290
   0
174
   0
93
      1
44
0.0
173
   0
291
   1
45
0.0
1001
ACAD
1000
AcDbSavedByObjectVersion
1070
   0
0
VISUALSTYLE
5
2B
102
{ACAD_REACTORS
330
2A
102
}
330
2A
100
AcDbVisualStyle
2
Flat
70
   0
71
   2
72
   1
73
   1
90
      2
40
-0.6
41
30.0
62
   5
63
   7
421
16777215
74
   0
91
      4
64
   7
65
 257
75
   1
175
   1
42
1.0
92
      8
66
   7
43
1.0
76
   1
77
   6
78
   2
67
   7
79
   5
170
   0
171
   0
290
   0
174
   0
93
     13
44
0.0
173
   0
291
   1
45
0.0
1001
ACAD
1000
AcDbSavedByObjectVersion
1070
   0
0
VISUALSTYLE
5
2C
102
{ACAD_REACTORS
330
2A
102
}
330
2A
100
AcDbVisualStyle
2
FlatWithEdges
70
   1
71
   2
72
   1
73
   1
90
      2
40
-0.6
41
30.0
62
   5
63
   7
421
16777215
74
   1
91
      4
64
   7
65
 257
75
   1
175
   1
42
1.0
92
      0
66
 257
43
1.0
76
   1
77
   6
78
   2
67
   7
79
   5
170
   0
171
   0
290
   0
174
   0
93
     13
44
0.0
173
   0
291
   1
45
0.0
1001
ACAD
1000
AcDbSavedByObjectVersion
1070
   0
0
VISUALSTYLE
5
2D
102
{ACAD_REACTORS
330
2A
102
}
330
2A
100
AcDbVisualStyle
2
Gouraud
70
   2
71
   2
72
   2
73
   1
90
      2
40
-0.6
41
30.0
62
   5
63
   7
421
16777215
74
   0
91
      4
64
   7
65
 257
75
   1
175
   1
42
1.0
92
      0
66
   7
43
1.0
76
   1
77
   6
78
   2
67
   7
79
   5
170
   0
171
   0
290
   0
174
   0
93
     13
44
0.0
173
   0
291
   1
45
0.0
1001
ACAD
1000
AcDbSavedByObjectVersion
1070
   0
0
VISUALSTYLE
5
2E
102
{ACAD_REACTORS
330
2A
102
}
330
2A
100
AcDbVisualStyle
2
GouraudWithEdges
70
   3
71
   2
72
   2
73
   1
90
      2
40
-0.6
41
30.0
62
   5
63
   7
421
16777215
74
   1
91
      4
64
   7
65
 257
75
   1
175
   1
42
1.0
92
      0
66
 257
43
1.0
76
   1
77
   6
78
   2
67
   7
79
   5
170
   0
171
   0
290
   0
174
   0
93
     13
44
0.0
173
   0
291
   1
45
0.0
1001
ACAD
1000
AcDbSavedByObjectVersion
1070
   0
0
VISUALSTYLE
5
38
102
{ACAD_REACTORS
330
2A
102
}
330
2A
100
AcDbVisualStyle
2
Linepattern
70
  14
71
   2
72
   2
73
   0
90
      0
40
-0.6
41
-30.0
62
   5
63
   7
421
16777215
74
   1
91
      4
64
   7
65
 257
75
   7
175
   7
42
1.0
92
      8
66
   7
43
1.0
76
   1
77
   6
78
   2
67
   7
79
   5
170
   0
171
   0
290
   0
174
   0
93
      1
44
0.0
173
   0
291
   1
45
0.0
1001
ACAD
1000
AcDbSavedByObjectVersion
1070
   0
0
VISUALSTYLE
5
33
102
{ACAD_REACTORS
330
2A
102
}
330
2A
100
AcDbVisualStyle
2
Realistic
70
   8
71
   2
72
   2
73
   0
90
      0
40
-0.6
41
-30.0
62
   5
63
   7
421
16777215
74
   1
91
      0
64
   7
65
 257
75
   1
175
   1
42
1.0
92
      8
66
   8
424
7895160
43
1.0
76
   1
77
   6
78
   2
67
   7
79
   5
170
   0
171
   0
290
   0
174
   0
93
     13
44
0.0
173
   0
291
   0
45
0.0
1001
ACAD
1000
AcDbSavedByObjectVersion
1070
   0
0
VISUALSTYLE
5
37
102
{ACAD_REACTORS
330
2A
102
}
330
2A
100
AcDbVisualStyle
2
Thicken
70
  13
71
   2
72
   2
73
   0
90
      0
40
-0.6
41
-30.0
62
   5
63
   7
421
16777215
74
   1
91
      4
64
   7
65
 257
75
   1
175
   1
42
1.0
92
     12
66
   7
43
1.0
76
   1
77
   6
78
   2
67
   7
79
   5
170
   0
171
   0
290
   0
174
   0
93
      1
44
0.0
173
   0
291
   1
45
0.0
1001
ACAD
1000
AcDbSavedByObjectVersion
1070
   0
0
ENDSEC
  0
EOF
