<?xml version="1.0" encoding="UTF-8" standalone="no"?>
<!-- Created with Inkscape (http://www.inkscape.org/) -->

<svg
   version="1.1"
   id="svg1"
   width="2257.3333"
   height="1162.6667"
   viewBox="0 0 2257.3333 1162.6667"
   sodipodi:docname="Monteriggioni_real2.pdf"
   inkscape:version="1.4 (86a8ad7, 2024-10-11)"
   inkscape:dataloss="true"
   inkscape:export-filename="Monteriggioni_real2_categorized.svg"
   inkscape:export-xdpi="96"
   inkscape:export-ydpi="96"
   xmlns:inkscape="http://www.inkscape.org/namespaces/inkscape"
   xmlns:sodipodi="http://sodipodi.sourceforge.net/DTD/sodipodi-0.dtd"
   xmlns="http://www.w3.org/2000/svg"
   xmlns:svg="http://www.w3.org/2000/svg">
  <defs
     id="defs1" />
  <sodipodi:namedview
     id="namedview1"
     pagecolor="#ffffff"
     bordercolor="#000000"
     borderopacity="0.25"
     inkscape:showpageshadow="2"
     inkscape:pageopacity="0.0"
     inkscape:pagecheckerboard="0"
     inkscape:deskcolor="#d1d1d1"
     inkscape:zoom="0.69409396"
     inkscape:cx="1128.0893"
     inkscape:cy="581.3334"
     inkscape:window-width="2560"
     inkscape:window-height="1369"
     inkscape:window-x="1917"
     inkscape:window-y="865"
     inkscape:window-maximized="1"
     inkscape:current-layer="layer3">
    <inkscape:page
       x="0"
       y="0"
       inkscape:label="1"
       id="page1"
       width="2257.3333"
       height="1162.6667"
       margin="0"
       bleed="0" />
  </sodipodi:namedview>
  <g
     id="g1"
     inkscape:groupmode="layer"
     inkscape:label="1">
    <path
       id="path1"
       d="M 0,0 H 2258 V 1163 H 0 Z"
       style="display:inline;fill:#ffffff;fill-opacity:1;fill-rule:nonzero;stroke:none" />
  </g>
  <g
     inkscape:groupmode="layer"
     id="layer2"
     inkscape:label="Stadtmauer">
    <path
       id="path21"
       d="m 523.45371,353.96405 -1.48975,2.97951 3.47608,1.98634 -45.93402,71.88054 -16.13898,32.52626 -22.59458,-6.2073 -9.55924,34.51259 15.3941,3.60023 -12.04216,52.76206 -9.4351,43.6994 -23.09116,-2.48292 -3.97267,37.98868 24.08433,2.73121 27.43627,46.43061 40.71989,50.15499 -12.78704,11.79387 26.07066,26.6914 11.049,-10.92485 41.46477,42.83037 44.94086,40.09917 -10.30412,13.03533 28.92602,23.2153 10.55241,-13.15947 68.28031,52.76205 25.44994,11.79388 -5.33828,13.28362 33.76771,13.53192 4.8417,-13.40777 65.67324,26.07066 43.07867,6.95218 -0.37244,15.26996 37.74039,0.24829 -0.24829,-14.64923 99.56507,1.11731 50.5275,-3.72438 28.6777,-9.68339 17.1321,-9.68339 67.0389,-65.42495 7.5729,7.94535 25.5741,-27.56042 -7.8212,-7.8212 35.5057,-53.25864 7.0764,-15.39411 12.5387,-74.86004 23.0912,4.22096 2.1105,-10.67656 -33.147,-7.32461 -1.4898,11.049 6.3315,1.48975 -13.532,74.98419 -44.0718,70.39079 -21.229,23.21531 -42.2096,42.0855 -25.4499,23.58774 -17.2563,9.4351 -26.8156,8.56607 -50.2791,4.09682 -133.08454,-1.11731 -46.43061,-8.44193 -68.03202,-26.31896 -29.54675,-12.16631 -24.45677,-11.66972 -71.5081,-54.37596 -24.58091,-19.36678 -43.32697,-38.11282 -46.92719,-48.78939 -21.10482,-23.33945 -40.22331,-50.52743 -29.42261,-49.28597 3.97267,-29.4226 23.33946,-101.05486 4.5934,0.86902 7.69705,-27.68456 1.98634,0.12415 40.4716,-71.63226 25.20164,-39.23014 z"
       style="fill:#e15989;fill-opacity:1;fill-rule:evenodd;stroke:#232323;stroke-width:0.982677;stroke-linecap:square;stroke-linejoin:bevel;stroke-miterlimit:10;stroke-dasharray:none;stroke-opacity:1" />
    <path
       id="path20"
       d="m 532.39222,338.94239 1.73804,-3.72438 4.34512,2.73121 1.11731,-2.73121 -15.39411,-9.18681 16.75972,-30.53992 15.76654,8.44193 36.87137,-72.99786 12.29045,-14.52508 -9.55924,-16.26313 30.04334,-18.00117 10.05582,16.26313 49.53426,-12.16631 27.80871,-2.60707 38.11283,2.85536 1.86219,-14.77338 35.8782,4.34511 -1.86219,15.6424 46.18232,9.93168 29.29846,10.92485 37.86453,21.10482 7.57291,-13.53191 31.40894,17.13215 -7.32461,13.53191 315.57917,160.14837 26.9397,25.32579 0.3724,4.46925 13.5319,-0.12415 2.9795,27.80871 -13.656,0.62073 0.1241,89.75757 10.9249,0.2483 -1.1173,35.75405 -12.5388,0.12414 -14.5251,80.19833 15.7666,2.85536 -1.9864,12.16631 -32.6504,-6.95218 1.7381,-9.93168 12.1663,1.98634 16.6356,-85.04002 2.2346,-28.55359 -0.4966,-95.34414 -2.4829,-27.56042 -27.0638,-25.32578 -318.93117,-160.39666 -64.05934,-36.37478 -29.05017,-10.92485 -49.78255,-10.92485 -28.55359,-3.97267 -41.46477,-3.35194 -28.30529,2.73121 -51.5206,13.03533 -23.71188,13.53192 -13.40777,16.01483 -38.36112,76.72224 -13.90436,24.58091 -4.5934,8.81437 z"
       style="display:inline;fill:#e15989;fill-opacity:1;fill-rule:evenodd;stroke:#232323;stroke-width:0.982677;stroke-linecap:square;stroke-linejoin:bevel;stroke-miterlimit:10;stroke-dasharray:none;stroke-opacity:1" />
  </g>
  <g
     inkscape:groupmode="layer"
     id="layer3"
     inkscape:label="Strassen">
    <path
       id="path29"
       d="m 797.33534,399.85153 -31.0365,-15.82862 28.55358,-48.16865 -22.34628,-12.91119 44.56842,-80.19833"
       style="fill:none;stroke:#91522d;stroke-width:0.982677;stroke-linecap:square;stroke-linejoin:bevel;stroke-miterlimit:10;stroke-dasharray:none;stroke-opacity:1" />
    <path
       id="path22"
       d="m 539.59269,342.91506 65.22321,35.14884 46.80305,24.95335 67.90787,34.76088"
       style="fill:none;stroke:#91522d;stroke-width:0.982677;stroke-linecap:square;stroke-linejoin:bevel;stroke-miterlimit:10;stroke-dasharray:none;stroke-opacity:1" />
    <path
       id="path30"
       d="m 746.34236,684.06831 30.75718,16.15451 80.9432,38.11282"
       style="fill:none;stroke:#91522d;stroke-width:0.982677;stroke-linecap:square;stroke-linejoin:bevel;stroke-miterlimit:10;stroke-dasharray:none;stroke-opacity:1" />
    <path
       id="path23"
       d="m 531.15076,357.19185 86.07974,46.81857 -56.36229,102.17217 -17.6253,28.92015"
       style="fill:none;stroke:#91522d;stroke-width:0.982677;stroke-linecap:square;stroke-linejoin:bevel;stroke-miterlimit:10;stroke-dasharray:none;stroke-opacity:1" />
    <path
       id="path28"
       d="m 1238.5348,699.83486 -51.8775,-12.70945"
       style="fill:none;stroke:#91522d;stroke-width:0.982677;stroke-linecap:square;stroke-linejoin:bevel;stroke-miterlimit:10;stroke-dasharray:none;stroke-opacity:1" />
    <path
       id="path27"
       d="m 1027.8434,593.62794 169.3663,73.32374 23.3394,5.46243 23.6964,0.8535"
       style="fill:none;stroke:#91522d;stroke-width:0.982677;stroke-linecap:square;stroke-linejoin:bevel;stroke-miterlimit:10;stroke-dasharray:none;stroke-opacity:1" />
    <path
       id="path24"
       d="m 845.03845,633.0443 -260.98597,-134.55876 -24.45676,41.58891 -1.48976,5.83487 0.49659,7.20047 3.60023,7.20046 6.82803,7.07633 67.41129,37.36795 147.7648,80.30695"
       style="fill:none;stroke:#91522d;stroke-width:0.982677;stroke-linecap:square;stroke-linejoin:bevel;stroke-miterlimit:10;stroke-dasharray:none;stroke-opacity:1" />
    <path
       id="path25"
       d="M 511.58224,521.31289 485.015,509.64316"
       style="fill:none;stroke:#91522d;stroke-width:0.982677;stroke-linecap:square;stroke-linejoin:bevel;stroke-miterlimit:10;stroke-dasharray:none;stroke-opacity:1" />
    <path
       id="path26"
       d="m 985.13723,572.64726 -17.84599,-8.48848"
       style="fill:none;stroke:#91522d;stroke-width:0.982677;stroke-linecap:square;stroke-linejoin:bevel;stroke-miterlimit:10;stroke-dasharray:none;stroke-opacity:1" />
    <path
       id="path31"
       d="M 858.04274,738.33564 996.5897,806.36766"
       style="fill:none;stroke:#91522d;stroke-width:0.982677;stroke-linecap:square;stroke-linejoin:bevel;stroke-miterlimit:10;stroke-dasharray:none;stroke-opacity:1" />
    <path
       id="path32"
       d="m 1006.0248,810.83692 64.5559,31.78138"
       style="fill:none;stroke:#91522d;stroke-width:0.982677;stroke-linecap:square;stroke-linejoin:bevel;stroke-miterlimit:10;stroke-dasharray:none;stroke-opacity:1" />
    <path
       id="path33"
       d="m 1082.4987,844.60463 4.221,-3.22779 33.5194,-69.14934"
       style="display:none;fill:none;stroke:#91522d;stroke-width:0.982677;stroke-linecap:square;stroke-linejoin:bevel;stroke-miterlimit:10;stroke-dasharray:none;stroke-opacity:1" />
  </g>
  <g
     inkscape:groupmode="layer"
     id="layer1"
     inkscape:label="Gebaeude">
    <path
       id="path2"
       d="m 652.23968,400.82918 30.41578,-60.76948 63.19032,31.78138 -29.42261,62.07301 z"
       style="fill:#b7484b;fill-opacity:1;fill-rule:evenodd;stroke:#232323;stroke-width:0.982677;stroke-linecap:square;stroke-linejoin:bevel;stroke-miterlimit:10;stroke-dasharray:none;stroke-opacity:1" />
    <path
       id="path3"
       d="m 627.03804,421.0029 -35.38161,63.06618 158.65861,81.43979 1.24146,-2.48292 18.37361,12.4146 38.8577,-57.35546 z"
       style="fill:#b7484b;fill-opacity:1;fill-rule:evenodd;stroke:#232323;stroke-width:0.982677;stroke-linecap:square;stroke-linejoin:bevel;stroke-miterlimit:10;stroke-dasharray:none;stroke-opacity:1" />
    <path
       id="path4"
       d="m 792.15224,586.61369 41.83721,-65.42495 68.03202,38.36112 -39.106,64.55593 z"
       style="fill:#b7484b;fill-opacity:1;fill-rule:evenodd;stroke:#232323;stroke-width:0.982677;stroke-linecap:square;stroke-linejoin:bevel;stroke-miterlimit:10;stroke-dasharray:none;stroke-opacity:1" />
    <path
       id="path5"
       d="m 464.90334,500.45636 20.11166,9.1868 -12.04217,28.92602 38.73356,35.75406 17.87703,-19.36678 15.89069,10.55241 13.90435,15.26996 16.13898,9.1868 38.48527,26.6914 87.77123,42.70623 44.56842,24.70505 -0.49658,2.73122 25.20164,14.52508 -21.97384,43.82354 -26.6914,-12.4146 -2.9795,5.08999 -13.90436,-6.57974 7.20047,-11.66972 -9.80753,-4.46926 6.57974,-11.79387 -15.51826,-7.94535 -2.35877,4.34511 -19.36678,-8.44193 2.60707,-6.70388 -19.49093,-8.56608 3.35195,-9.93168 -58.10034,-29.05017 -23.58774,23.58775 -35.00918,-28.42944 -2.35878,2.35877 -21.97384,-19.36677 -4.71755,5.71071 -13.40777,-11.04899 4.46926,-5.95901 -41.34063,-39.97502 -2.60706,6.08315 -12.4146,-11.79387 z"
       style="fill:#b7484b;fill-opacity:1;fill-rule:evenodd;stroke:#232323;stroke-width:0.982677;stroke-linecap:square;stroke-linejoin:bevel;stroke-miterlimit:10;stroke-dasharray:none;stroke-opacity:1" />
    <path
       id="path6"
       d="m 511.58224,521.31289 11.54558,-21.35312 20.4841,11.42143 6.70388,-11.04899 8.56608,4.96584 -17.13215,32.6504 z"
       style="fill:#b7484b;fill-opacity:1;fill-rule:evenodd;stroke:#232323;stroke-width:0.982677;stroke-linecap:square;stroke-linejoin:bevel;stroke-miterlimit:10;stroke-dasharray:none;stroke-opacity:1" />
    <path
       id="path7"
       d="m 682.90375,705.29728 8.93851,4.59341 -10.92485,26.07066 9.55925,13.15948 -23.71189,31.90552 -12.78704,-13.28362 21.72555,-30.16748 -10.05583,-7.07633 z"
       style="fill:#b7484b;fill-opacity:1;fill-rule:evenodd;stroke:#232323;stroke-width:0.982677;stroke-linecap:square;stroke-linejoin:bevel;stroke-miterlimit:10;stroke-dasharray:none;stroke-opacity:1" />
    <path
       id="path8"
       d="m 784.2069,685.06148 76.3498,36.37479 49.41011,-49.9067 1.48976,-4.59341 -66.41812,-33.89186 -5.21414,-0.12414 z"
       style="fill:#b7484b;fill-opacity:1;fill-rule:evenodd;stroke:#232323;stroke-width:0.982677;stroke-linecap:square;stroke-linejoin:bevel;stroke-miterlimit:10;stroke-dasharray:none;stroke-opacity:1" />
    <path
       id="path9"
       d="m 1027.0986,487.85553 34.6367,17.38045 -8.1936,16.13898 8.3178,4.96584 -34.0161,67.28714 -42.70617,-20.98068 z"
       style="fill:#b7484b;fill-opacity:1;fill-rule:evenodd;stroke:#232323;stroke-width:0.982677;stroke-linecap:square;stroke-linejoin:bevel;stroke-miterlimit:10;stroke-dasharray:none;stroke-opacity:1" />
    <path
       id="path10"
       d="m 799.16649,478.66873 32.77455,-62.3213 123.40114,65.5491 13.15948,-24.58092 58.59694,30.53992 -20.2677,40.95512 -31.47017,-17.10356 -23.58774,46.18232 z"
       style="fill:#b7484b;fill-opacity:1;fill-rule:evenodd;stroke:#232323;stroke-width:0.982677;stroke-linecap:square;stroke-linejoin:bevel;stroke-miterlimit:10;stroke-dasharray:none;stroke-opacity:1" />
    <path
       id="path11"
       d="m 831.94104,416.34743 20.01855,-38.84219 -34.01601,-17.87702 -20.60824,40.22331 z"
       style="fill:#b7484b;fill-opacity:1;fill-rule:evenodd;stroke:#232323;stroke-width:0.982677;stroke-linecap:square;stroke-linejoin:bevel;stroke-miterlimit:10;stroke-dasharray:none;stroke-opacity:1" />
    <path
       id="path12"
       d="m 832.71695,785.20076 24.20848,-45.065 68.77689,34.63674 -18.49776,35.8782 z"
       style="fill:#b7484b;fill-opacity:1;fill-rule:evenodd;stroke:#232323;stroke-width:0.982677;stroke-linecap:square;stroke-linejoin:bevel;stroke-miterlimit:10;stroke-dasharray:none;stroke-opacity:1" />
    <path
       id="path13"
       d="m 886.59633,855.34326 6.70388,-15.14581 18.24947,7.32461 2.73121,-7.32461 20.2358,8.56607 -10.92485,23.33946 z"
       style="display:inline;fill:#b7484b;fill-opacity:1;fill-rule:evenodd;stroke:#232323;stroke-width:0.982677;stroke-linecap:square;stroke-linejoin:bevel;stroke-miterlimit:10;stroke-dasharray:none;stroke-opacity:1" />
    <path
       id="path14"
       d="m 942.33789,840.19745 20.60824,11.54558 17.008,-32.40211 -20.11165,-11.29729 z"
       style="fill:#b7484b;fill-opacity:1;fill-rule:evenodd;stroke:#232323;stroke-width:0.982677;stroke-linecap:square;stroke-linejoin:bevel;stroke-miterlimit:10;stroke-dasharray:none;stroke-opacity:1" />
    <path
       id="path15"
       d="m 970.27074,895.31828 37.98866,-79.82589 56.114,26.56725 -38.1128,80.19833 z"
       style="fill:#b7484b;fill-opacity:1;fill-rule:evenodd;stroke:#232323;stroke-width:0.982677;stroke-linecap:square;stroke-linejoin:bevel;stroke-miterlimit:10;stroke-dasharray:none;stroke-opacity:1" />
    <path
       id="path16"
       d="m 1090.1958,841.99757 15.6424,-31.40895 22.2842,9.93169 -16.0148,32.02967 z"
       style="fill:#b7484b;fill-opacity:1;fill-rule:evenodd;stroke:#232323;stroke-width:0.982677;stroke-linecap:square;stroke-linejoin:bevel;stroke-miterlimit:10;stroke-dasharray:none;stroke-opacity:1" />
    <path
       id="path17"
       d="m 1116.1423,795.38074 14.6492,6.95217 6.7039,-12.91118 13.6561,1.24146 35.5058,-103.53778 -33.5195,-11.42143 -30.0433,76.22565 -0.2483,32.02967 z"
       style="fill:#b7484b;fill-opacity:1;fill-rule:evenodd;stroke:#232323;stroke-width:0.982677;stroke-linecap:square;stroke-linejoin:bevel;stroke-miterlimit:10;stroke-dasharray:none;stroke-opacity:1" />
    <path
       id="path18"
       d="m 887.3412,733.92846 37.74039,-55.86571 118.93191,56.85888 -13.9044,29.54675 -33.7677,-16.38728 -3.35194,-0.18621 -2.11048,0.86902 -1.67597,1.30353 -0.9311,1.6139 -0.93109,2.42085 -0.37244,2.66914 0.37244,3.04157 0.80695,1.86219 2.23463,1.67597 41.8993,19.86337 3.9727,-0.18622 2.9174,0.86902 19.553,-39.54051 31.9055,14.21472 -3.2899,10.05583 14.2148,4.8417 -25.2017,50.40328 -32.278,-13.53192 8.1937,-15.51825 -13.4854,-4.98136 -9.9317,13.28363 z"
       style="fill:#b7484b;fill-opacity:1;fill-rule:evenodd;stroke:#232323;stroke-width:0.982677;stroke-linecap:square;stroke-linejoin:bevel;stroke-miterlimit:10;stroke-dasharray:none;stroke-opacity:1" />
    <path
       id="path19"
       d="m 983.87227,968.57846 -0.62224,-21.70355 36.87497,-1.125 0.6453,21.49923 -18.2371,1.48599 z"
       style="fill:#b7484b;fill-opacity:1;fill-rule:evenodd;stroke:#232323;stroke-width:0.982677;stroke-linecap:square;stroke-linejoin:bevel;stroke-miterlimit:10;stroke-dasharray:none;stroke-opacity:1" />
  </g>
</svg>
